<svg width="860" height="360" viewBox="0 0 860 360" fill="none" xmlns="http://www.w3.org/2000/svg">
<rect width="860" height="360" rx="5" fill="#252A42"/>
<path d="M790.271 318H789.182V310.775L786.996 311.578V310.594L790.102 309.428H790.271V318ZM798.797 314.361C798.797 315.631 798.58 316.574 798.146 317.191C797.713 317.809 797.035 318.117 796.113 318.117C795.203 318.117 794.529 317.816 794.092 317.215C793.654 316.609 793.428 315.707 793.412 314.508V313.061C793.412 311.807 793.629 310.875 794.062 310.266C794.496 309.656 795.176 309.352 796.102 309.352C797.02 309.352 797.695 309.646 798.129 310.236C798.562 310.822 798.785 311.729 798.797 312.955V314.361ZM797.713 312.879C797.713 311.961 797.584 311.293 797.326 310.875C797.068 310.453 796.66 310.242 796.102 310.242C795.547 310.242 795.143 310.451 794.889 310.869C794.635 311.287 794.504 311.93 794.496 312.797V314.531C794.496 315.453 794.629 316.135 794.895 316.576C795.164 317.014 795.57 317.232 796.113 317.232C796.648 317.232 797.045 317.025 797.303 316.611C797.564 316.197 797.701 315.545 797.713 314.654V312.879ZM804.34 314.25C804.113 314.52 803.842 314.736 803.525 314.9C803.213 315.064 802.869 315.146 802.494 315.146C802.002 315.146 801.572 315.025 801.205 314.783C800.842 314.541 800.561 314.201 800.361 313.764C800.162 313.322 800.062 312.836 800.062 312.305C800.062 311.734 800.17 311.221 800.385 310.764C800.604 310.307 800.912 309.957 801.311 309.715C801.709 309.473 802.174 309.352 802.705 309.352C803.549 309.352 804.213 309.668 804.697 310.301C805.186 310.93 805.43 311.789 805.43 312.879V313.195C805.43 314.855 805.102 316.068 804.445 316.834C803.789 317.596 802.799 317.986 801.475 318.006H801.264V317.092H801.492C802.387 317.076 803.074 316.844 803.555 316.395C804.035 315.941 804.297 315.227 804.34 314.25ZM802.67 314.25C803.033 314.25 803.367 314.139 803.672 313.916C803.98 313.693 804.205 313.418 804.346 313.09V312.656C804.346 311.945 804.191 311.367 803.883 310.922C803.574 310.477 803.184 310.254 802.711 310.254C802.234 310.254 801.852 310.438 801.562 310.805C801.273 311.168 801.129 311.648 801.129 312.246C801.129 312.828 801.268 313.309 801.545 313.688C801.826 314.062 802.201 314.25 802.67 314.25ZM812.098 311.695C812.098 312.121 811.984 312.5 811.758 312.832C811.535 313.164 811.232 313.424 810.85 313.611C811.295 313.803 811.646 314.082 811.904 314.449C812.166 314.816 812.297 315.232 812.297 315.697C812.297 316.436 812.047 317.023 811.547 317.461C811.051 317.898 810.396 318.117 809.584 318.117C808.764 318.117 808.105 317.898 807.609 317.461C807.117 317.02 806.871 316.432 806.871 315.697C806.871 315.236 806.996 314.82 807.246 314.449C807.5 314.078 807.85 313.797 808.295 313.605C807.916 313.418 807.617 313.158 807.398 312.826C807.18 312.494 807.07 312.117 807.07 311.695C807.07 310.977 807.301 310.406 807.762 309.984C808.223 309.562 808.83 309.352 809.584 309.352C810.334 309.352 810.939 309.562 811.4 309.984C811.865 310.406 812.098 310.977 812.098 311.695ZM811.213 315.674C811.213 315.197 811.061 314.809 810.756 314.508C810.455 314.207 810.061 314.057 809.572 314.057C809.084 314.057 808.691 314.205 808.395 314.502C808.102 314.799 807.955 315.189 807.955 315.674C807.955 316.158 808.098 316.539 808.383 316.816C808.672 317.094 809.072 317.232 809.584 317.232C810.092 317.232 810.49 317.094 810.779 316.816C811.068 316.535 811.213 316.154 811.213 315.674ZM809.584 310.242C809.158 310.242 808.812 310.375 808.547 310.641C808.285 310.902 808.154 311.26 808.154 311.713C808.154 312.146 808.283 312.498 808.541 312.768C808.803 313.033 809.15 313.166 809.584 313.166C810.018 313.166 810.363 313.033 810.621 312.768C810.883 312.498 811.014 312.146 811.014 311.713C811.014 311.279 810.879 310.926 810.609 310.652C810.34 310.379 809.998 310.242 809.584 310.242ZM819.012 314.361C819.012 315.631 818.795 316.574 818.361 317.191C817.928 317.809 817.25 318.117 816.328 318.117C815.418 318.117 814.744 317.816 814.307 317.215C813.869 316.609 813.643 315.707 813.627 314.508V313.061C813.627 311.807 813.844 310.875 814.277 310.266C814.711 309.656 815.391 309.352 816.316 309.352C817.234 309.352 817.91 309.646 818.344 310.236C818.777 310.822 819 311.729 819.012 312.955V314.361ZM817.928 312.879C817.928 311.961 817.799 311.293 817.541 310.875C817.283 310.453 816.875 310.242 816.316 310.242C815.762 310.242 815.357 310.451 815.104 310.869C814.85 311.287 814.719 311.93 814.711 312.797V314.531C814.711 315.453 814.844 316.135 815.109 316.576C815.379 317.014 815.785 317.232 816.328 317.232C816.863 317.232 817.26 317.025 817.518 316.611C817.779 316.197 817.916 315.545 817.928 314.654V312.879ZM820.477 319.699L819.861 319.277C820.229 318.766 820.42 318.238 820.436 317.695V316.717H821.496V317.566C821.496 317.961 821.398 318.355 821.203 318.75C821.012 319.145 820.77 319.461 820.477 319.699ZM828.105 314.361C828.105 315.631 827.889 316.574 827.455 317.191C827.021 317.809 826.344 318.117 825.422 318.117C824.512 318.117 823.838 317.816 823.4 317.215C822.963 316.609 822.736 315.707 822.721 314.508V313.061C822.721 311.807 822.938 310.875 823.371 310.266C823.805 309.656 824.484 309.352 825.41 309.352C826.328 309.352 827.004 309.646 827.438 310.236C827.871 310.822 828.094 311.729 828.105 312.955V314.361ZM827.021 312.879C827.021 311.961 826.893 311.293 826.635 310.875C826.377 310.453 825.969 310.242 825.41 310.242C824.855 310.242 824.451 310.451 824.197 310.869C823.943 311.287 823.812 311.93 823.805 312.797V314.531C823.805 315.453 823.938 316.135 824.203 316.576C824.473 317.014 824.879 317.232 825.422 317.232C825.957 317.232 826.354 317.025 826.611 316.611C826.873 316.197 827.01 315.545 827.021 314.654V312.879ZM834.844 314.361C834.844 315.631 834.627 316.574 834.193 317.191C833.76 317.809 833.082 318.117 832.16 318.117C831.25 318.117 830.576 317.816 830.139 317.215C829.701 316.609 829.475 315.707 829.459 314.508V313.061C829.459 311.807 829.676 310.875 830.109 310.266C830.543 309.656 831.223 309.352 832.148 309.352C833.066 309.352 833.742 309.646 834.176 310.236C834.609 310.822 834.832 311.729 834.844 312.955V314.361ZM833.76 312.879C833.76 311.961 833.631 311.293 833.373 310.875C833.115 310.453 832.707 310.242 832.148 310.242C831.594 310.242 831.189 310.451 830.936 310.869C830.682 311.287 830.551 311.93 830.543 312.797V314.531C830.543 315.453 830.676 316.135 830.941 316.576C831.211 317.014 831.617 317.232 832.16 317.232C832.695 317.232 833.092 317.025 833.35 316.611C833.611 316.197 833.748 315.545 833.76 314.654V312.879Z" fill="#CBD1E6"/>
<path d="M790.271 258H789.182V250.775L786.996 251.578V250.594L790.102 249.428H790.271V258ZM797.01 258H795.92V250.775L793.734 251.578V250.594L796.84 249.428H797.01V258ZM805.775 258H800.186V257.221L803.139 253.939C803.576 253.443 803.877 253.041 804.041 252.732C804.209 252.42 804.293 252.098 804.293 251.766C804.293 251.32 804.158 250.955 803.889 250.67C803.619 250.385 803.26 250.242 802.811 250.242C802.271 250.242 801.852 250.396 801.551 250.705C801.254 251.01 801.105 251.436 801.105 251.982H800.021C800.021 251.197 800.273 250.562 800.777 250.078C801.285 249.594 801.963 249.352 802.811 249.352C803.604 249.352 804.23 249.561 804.691 249.979C805.152 250.393 805.383 250.945 805.383 251.637C805.383 252.477 804.848 253.477 803.777 254.637L801.492 257.115H805.775V258ZM812.098 251.695C812.098 252.121 811.984 252.5 811.758 252.832C811.535 253.164 811.232 253.424 810.85 253.611C811.295 253.803 811.646 254.082 811.904 254.449C812.166 254.816 812.297 255.232 812.297 255.697C812.297 256.436 812.047 257.023 811.547 257.461C811.051 257.898 810.396 258.117 809.584 258.117C808.764 258.117 808.105 257.898 807.609 257.461C807.117 257.02 806.871 256.432 806.871 255.697C806.871 255.236 806.996 254.82 807.246 254.449C807.5 254.078 807.85 253.797 808.295 253.605C807.916 253.418 807.617 253.158 807.398 252.826C807.18 252.494 807.07 252.117 807.07 251.695C807.07 250.977 807.301 250.406 807.762 249.984C808.223 249.562 808.83 249.352 809.584 249.352C810.334 249.352 810.939 249.562 811.4 249.984C811.865 250.406 812.098 250.977 812.098 251.695ZM811.213 255.674C811.213 255.197 811.061 254.809 810.756 254.508C810.455 254.207 810.061 254.057 809.572 254.057C809.084 254.057 808.691 254.205 808.395 254.502C808.102 254.799 807.955 255.189 807.955 255.674C807.955 256.158 808.098 256.539 808.383 256.816C808.672 257.094 809.072 257.232 809.584 257.232C810.092 257.232 810.49 257.094 810.779 256.816C811.068 256.535 811.213 256.154 811.213 255.674ZM809.584 250.242C809.158 250.242 808.812 250.375 808.547 250.641C808.285 250.902 808.154 251.26 808.154 251.713C808.154 252.146 808.283 252.498 808.541 252.768C808.803 253.033 809.15 253.166 809.584 253.166C810.018 253.166 810.363 253.033 810.621 252.768C810.883 252.498 811.014 252.146 811.014 251.713C811.014 251.279 810.879 250.926 810.609 250.652C810.34 250.379 809.998 250.242 809.584 250.242ZM819.012 254.361C819.012 255.631 818.795 256.574 818.361 257.191C817.928 257.809 817.25 258.117 816.328 258.117C815.418 258.117 814.744 257.816 814.307 257.215C813.869 256.609 813.643 255.707 813.627 254.508V253.061C813.627 251.807 813.844 250.875 814.277 250.266C814.711 249.656 815.391 249.352 816.316 249.352C817.234 249.352 817.91 249.646 818.344 250.236C818.777 250.822 819 251.729 819.012 252.955V254.361ZM817.928 252.879C817.928 251.961 817.799 251.293 817.541 250.875C817.283 250.453 816.875 250.242 816.316 250.242C815.762 250.242 815.357 250.451 815.104 250.869C814.85 251.287 814.719 251.93 814.711 252.797V254.531C814.711 255.453 814.844 256.135 815.109 256.576C815.379 257.014 815.785 257.232 816.328 257.232C816.863 257.232 817.26 257.025 817.518 256.611C817.779 256.197 817.916 255.545 817.928 254.654V252.879ZM820.477 259.699L819.861 259.277C820.229 258.766 820.42 258.238 820.436 257.695V256.717H821.496V257.566C821.496 257.961 821.398 258.355 821.203 258.75C821.012 259.145 820.77 259.461 820.477 259.699ZM828.105 254.361C828.105 255.631 827.889 256.574 827.455 257.191C827.021 257.809 826.344 258.117 825.422 258.117C824.512 258.117 823.838 257.816 823.4 257.215C822.963 256.609 822.736 255.707 822.721 254.508V253.061C822.721 251.807 822.938 250.875 823.371 250.266C823.805 249.656 824.484 249.352 825.41 249.352C826.328 249.352 827.004 249.646 827.438 250.236C827.871 250.822 828.094 251.729 828.105 252.955V254.361ZM827.021 252.879C827.021 251.961 826.893 251.293 826.635 250.875C826.377 250.453 825.969 250.242 825.41 250.242C824.855 250.242 824.451 250.451 824.197 250.869C823.943 251.287 823.812 251.93 823.805 252.797V254.531C823.805 255.453 823.938 256.135 824.203 256.576C824.473 257.014 824.879 257.232 825.422 257.232C825.957 257.232 826.354 257.025 826.611 256.611C826.873 256.197 827.01 255.545 827.021 254.654V252.879ZM834.844 254.361C834.844 255.631 834.627 256.574 834.193 257.191C833.76 257.809 833.082 258.117 832.16 258.117C831.25 258.117 830.576 257.816 830.139 257.215C829.701 256.609 829.475 255.707 829.459 254.508V253.061C829.459 251.807 829.676 250.875 830.109 250.266C830.543 249.656 831.223 249.352 832.148 249.352C833.066 249.352 833.742 249.646 834.176 250.236C834.609 250.822 834.832 251.729 834.844 252.955V254.361ZM833.76 252.879C833.76 251.961 833.631 251.293 833.373 250.875C833.115 250.453 832.707 250.242 832.148 250.242C831.594 250.242 831.189 250.451 830.936 250.869C830.682 251.287 830.551 251.93 830.543 252.797V254.531C830.543 255.453 830.676 256.135 830.941 256.576C831.211 257.014 831.617 257.232 832.16 257.232C832.695 257.232 833.092 257.025 833.35 256.611C833.611 256.197 833.748 255.545 833.76 254.654V252.879Z" fill="#CBD1E6"/>
<path d="M790.271 198H789.182V190.775L786.996 191.578V190.594L790.102 189.428H790.271V198ZM797.01 198H795.92V190.775L793.734 191.578V190.594L796.84 189.428H797.01V198ZM805.359 191.695C805.359 192.121 805.246 192.5 805.02 192.832C804.797 193.164 804.494 193.424 804.111 193.611C804.557 193.803 804.908 194.082 805.166 194.449C805.428 194.816 805.559 195.232 805.559 195.697C805.559 196.436 805.309 197.023 804.809 197.461C804.312 197.898 803.658 198.117 802.846 198.117C802.025 198.117 801.367 197.898 800.871 197.461C800.379 197.02 800.133 196.432 800.133 195.697C800.133 195.236 800.258 194.82 800.508 194.449C800.762 194.078 801.111 193.797 801.557 193.605C801.178 193.418 800.879 193.158 800.66 192.826C800.441 192.494 800.332 192.117 800.332 191.695C800.332 190.977 800.562 190.406 801.023 189.984C801.484 189.562 802.092 189.352 802.846 189.352C803.596 189.352 804.201 189.562 804.662 189.984C805.127 190.406 805.359 190.977 805.359 191.695ZM804.475 195.674C804.475 195.197 804.322 194.809 804.018 194.508C803.717 194.207 803.322 194.057 802.834 194.057C802.346 194.057 801.953 194.205 801.656 194.502C801.363 194.799 801.217 195.189 801.217 195.674C801.217 196.158 801.359 196.539 801.645 196.816C801.934 197.094 802.334 197.232 802.846 197.232C803.354 197.232 803.752 197.094 804.041 196.816C804.33 196.535 804.475 196.154 804.475 195.674ZM802.846 190.242C802.42 190.242 802.074 190.375 801.809 190.641C801.547 190.902 801.416 191.26 801.416 191.713C801.416 192.146 801.545 192.498 801.803 192.768C802.064 193.033 802.412 193.166 802.846 193.166C803.279 193.166 803.625 193.033 803.883 192.768C804.145 192.498 804.275 192.146 804.275 191.713C804.275 191.279 804.141 190.926 803.871 190.652C803.602 190.379 803.26 190.242 802.846 190.242ZM807.422 193.723L807.855 189.469H812.227V190.471H808.775L808.518 192.797C808.936 192.551 809.41 192.428 809.941 192.428C810.719 192.428 811.336 192.686 811.793 193.201C812.25 193.713 812.479 194.406 812.479 195.281C812.479 196.16 812.24 196.854 811.764 197.361C811.291 197.865 810.629 198.117 809.777 198.117C809.023 198.117 808.408 197.908 807.932 197.49C807.455 197.072 807.184 196.494 807.117 195.756H808.143C808.209 196.244 808.383 196.613 808.664 196.863C808.945 197.109 809.316 197.232 809.777 197.232C810.281 197.232 810.676 197.061 810.961 196.717C811.25 196.373 811.395 195.898 811.395 195.293C811.395 194.723 811.238 194.266 810.926 193.922C810.617 193.574 810.205 193.4 809.689 193.4C809.217 193.4 808.846 193.504 808.576 193.711L808.289 193.945L807.422 193.723ZM819.012 194.361C819.012 195.631 818.795 196.574 818.361 197.191C817.928 197.809 817.25 198.117 816.328 198.117C815.418 198.117 814.744 197.816 814.307 197.215C813.869 196.609 813.643 195.707 813.627 194.508V193.061C813.627 191.807 813.844 190.875 814.277 190.266C814.711 189.656 815.391 189.352 816.316 189.352C817.234 189.352 817.91 189.646 818.344 190.236C818.777 190.822 819 191.729 819.012 192.955V194.361ZM817.928 192.879C817.928 191.961 817.799 191.293 817.541 190.875C817.283 190.453 816.875 190.242 816.316 190.242C815.762 190.242 815.357 190.451 815.104 190.869C814.85 191.287 814.719 191.93 814.711 192.797V194.531C814.711 195.453 814.844 196.135 815.109 196.576C815.379 197.014 815.785 197.232 816.328 197.232C816.863 197.232 817.26 197.025 817.518 196.611C817.779 196.197 817.916 195.545 817.928 194.654V192.879ZM820.477 199.699L819.861 199.277C820.229 198.766 820.42 198.238 820.436 197.695V196.717H821.496V197.566C821.496 197.961 821.398 198.355 821.203 198.75C821.012 199.145 820.77 199.461 820.477 199.699ZM828.105 194.361C828.105 195.631 827.889 196.574 827.455 197.191C827.021 197.809 826.344 198.117 825.422 198.117C824.512 198.117 823.838 197.816 823.4 197.215C822.963 196.609 822.736 195.707 822.721 194.508V193.061C822.721 191.807 822.938 190.875 823.371 190.266C823.805 189.656 824.484 189.352 825.41 189.352C826.328 189.352 827.004 189.646 827.438 190.236C827.871 190.822 828.094 191.729 828.105 192.955V194.361ZM827.021 192.879C827.021 191.961 826.893 191.293 826.635 190.875C826.377 190.453 825.969 190.242 825.41 190.242C824.855 190.242 824.451 190.451 824.197 190.869C823.943 191.287 823.812 191.93 823.805 192.797V194.531C823.805 195.453 823.938 196.135 824.203 196.576C824.473 197.014 824.879 197.232 825.422 197.232C825.957 197.232 826.354 197.025 826.611 196.611C826.873 196.197 827.01 195.545 827.021 194.654V192.879ZM834.844 194.361C834.844 195.631 834.627 196.574 834.193 197.191C833.76 197.809 833.082 198.117 832.16 198.117C831.25 198.117 830.576 197.816 830.139 197.215C829.701 196.609 829.475 195.707 829.459 194.508V193.061C829.459 191.807 829.676 190.875 830.109 190.266C830.543 189.656 831.223 189.352 832.148 189.352C833.066 189.352 833.742 189.646 834.176 190.236C834.609 190.822 834.832 191.729 834.844 192.955V194.361ZM833.76 192.879C833.76 191.961 833.631 191.293 833.373 190.875C833.115 190.453 832.707 190.242 832.148 190.242C831.594 190.242 831.189 190.451 830.936 190.869C830.682 191.287 830.551 191.93 830.543 192.797V194.531C830.543 195.453 830.676 196.135 830.941 196.576C831.211 197.014 831.617 197.232 832.16 197.232C832.695 197.232 833.092 197.025 833.35 196.611C833.611 196.197 833.748 195.545 833.76 194.654V192.879Z" fill="#CBD1E6"/>
<path d="M790.271 78H789.182V70.7754L786.996 71.5781V70.5938L790.102 69.4277H790.271V78ZM795.023 73.207H795.838C796.35 73.1992 796.752 73.0645 797.045 72.8027C797.338 72.541 797.484 72.1875 797.484 71.7422C797.484 70.7422 796.986 70.2422 795.99 70.2422C795.521 70.2422 795.146 70.377 794.865 70.6465C794.588 70.9121 794.449 71.2656 794.449 71.707H793.365C793.365 71.0312 793.611 70.4707 794.104 70.0254C794.6 69.5762 795.229 69.3516 795.99 69.3516C796.795 69.3516 797.426 69.5645 797.883 69.9902C798.34 70.416 798.568 71.0078 798.568 71.7656C798.568 72.1367 798.447 72.4961 798.205 72.8438C797.967 73.1914 797.641 73.4512 797.227 73.623C797.695 73.7715 798.057 74.0176 798.311 74.3613C798.568 74.7051 798.697 75.125 798.697 75.6211C798.697 76.3867 798.447 76.9941 797.947 77.4434C797.447 77.8926 796.797 78.1172 795.996 78.1172C795.195 78.1172 794.543 77.9004 794.039 77.4668C793.539 77.0332 793.289 76.4609 793.289 75.75H794.379C794.379 76.1992 794.525 76.5586 794.818 76.8281C795.111 77.0977 795.504 77.2324 795.996 77.2324C796.52 77.2324 796.92 77.0957 797.197 76.8223C797.475 76.5488 797.613 76.1562 797.613 75.6445C797.613 75.1484 797.461 74.7676 797.156 74.502C796.852 74.2363 796.412 74.0996 795.838 74.0918H795.023V73.207ZM803.748 78H802.658V70.7754L800.473 71.5781V70.5938L803.578 69.4277H803.748V78ZM812.273 74.3613C812.273 75.6309 812.057 76.5742 811.623 77.1914C811.189 77.8086 810.512 78.1172 809.59 78.1172C808.68 78.1172 808.006 77.8164 807.568 77.2148C807.131 76.6094 806.904 75.707 806.889 74.5078V73.0605C806.889 71.8066 807.105 70.875 807.539 70.2656C807.973 69.6562 808.652 69.3516 809.578 69.3516C810.496 69.3516 811.172 69.6465 811.605 70.2363C812.039 70.8223 812.262 71.7285 812.273 72.9551V74.3613ZM811.189 72.8789C811.189 71.9609 811.061 71.293 810.803 70.875C810.545 70.4531 810.137 70.2422 809.578 70.2422C809.023 70.2422 808.619 70.4512 808.365 70.8691C808.111 71.2871 807.98 71.9297 807.973 72.7969V74.5312C807.973 75.4531 808.105 76.1348 808.371 76.5762C808.641 77.0137 809.047 77.2324 809.59 77.2324C810.125 77.2324 810.521 77.0254 810.779 76.6113C811.041 76.1973 811.178 75.5449 811.189 74.6543V72.8789ZM819.012 74.3613C819.012 75.6309 818.795 76.5742 818.361 77.1914C817.928 77.8086 817.25 78.1172 816.328 78.1172C815.418 78.1172 814.744 77.8164 814.307 77.2148C813.869 76.6094 813.643 75.707 813.627 74.5078V73.0605C813.627 71.8066 813.844 70.875 814.277 70.2656C814.711 69.6562 815.391 69.3516 816.316 69.3516C817.234 69.3516 817.91 69.6465 818.344 70.2363C818.777 70.8223 819 71.7285 819.012 72.9551V74.3613ZM817.928 72.8789C817.928 71.9609 817.799 71.293 817.541 70.875C817.283 70.4531 816.875 70.2422 816.316 70.2422C815.762 70.2422 815.357 70.4512 815.104 70.8691C814.85 71.2871 814.719 71.9297 814.711 72.7969V74.5312C814.711 75.4531 814.844 76.1348 815.109 76.5762C815.379 77.0137 815.785 77.2324 816.328 77.2324C816.863 77.2324 817.26 77.0254 817.518 76.6113C817.779 76.1973 817.916 75.5449 817.928 74.6543V72.8789ZM820.477 79.6992L819.861 79.2773C820.229 78.7656 820.42 78.2383 820.436 77.6953V76.7168H821.496V77.5664C821.496 77.9609 821.398 78.3555 821.203 78.75C821.012 79.1445 820.77 79.4609 820.477 79.6992ZM828.105 74.3613C828.105 75.6309 827.889 76.5742 827.455 77.1914C827.021 77.8086 826.344 78.1172 825.422 78.1172C824.512 78.1172 823.838 77.8164 823.4 77.2148C822.963 76.6094 822.736 75.707 822.721 74.5078V73.0605C822.721 71.8066 822.938 70.875 823.371 70.2656C823.805 69.6562 824.484 69.3516 825.41 69.3516C826.328 69.3516 827.004 69.6465 827.438 70.2363C827.871 70.8223 828.094 71.7285 828.105 72.9551V74.3613ZM827.021 72.8789C827.021 71.9609 826.893 71.293 826.635 70.875C826.377 70.4531 825.969 70.2422 825.41 70.2422C824.855 70.2422 824.451 70.4512 824.197 70.8691C823.943 71.2871 823.812 71.9297 823.805 72.7969V74.5312C823.805 75.4531 823.938 76.1348 824.203 76.5762C824.473 77.0137 824.879 77.2324 825.422 77.2324C825.957 77.2324 826.354 77.0254 826.611 76.6113C826.873 76.1973 827.01 75.5449 827.021 74.6543V72.8789ZM834.844 74.3613C834.844 75.6309 834.627 76.5742 834.193 77.1914C833.76 77.8086 833.082 78.1172 832.16 78.1172C831.25 78.1172 830.576 77.8164 830.139 77.2148C829.701 76.6094 829.475 75.707 829.459 74.5078V73.0605C829.459 71.8066 829.676 70.875 830.109 70.2656C830.543 69.6562 831.223 69.3516 832.148 69.3516C833.066 69.3516 833.742 69.6465 834.176 70.2363C834.609 70.8223 834.832 71.7285 834.844 72.9551V74.3613ZM833.76 72.8789C833.76 71.9609 833.631 71.293 833.373 70.875C833.115 70.4531 832.707 70.2422 832.148 70.2422C831.594 70.2422 831.189 70.4512 830.936 70.8691C830.682 71.2871 830.551 71.9297 830.543 72.7969V74.5312C830.543 75.4531 830.676 76.1348 830.941 76.5762C831.211 77.0137 831.617 77.2324 832.16 77.2324C832.695 77.2324 833.092 77.0254 833.35 76.6113C833.611 76.1973 833.748 75.5449 833.76 74.6543V72.8789Z" fill="#CBD1E6"/>
<path d="M790.271 138H789.182V130.775L786.996 131.578V130.594L790.102 129.428H790.271V138ZM799.037 138H793.447V137.221L796.4 133.939C796.838 133.443 797.139 133.041 797.303 132.732C797.471 132.42 797.555 132.098 797.555 131.766C797.555 131.32 797.42 130.955 797.15 130.67C796.881 130.385 796.521 130.242 796.072 130.242C795.533 130.242 795.113 130.396 794.812 130.705C794.516 131.01 794.367 131.436 794.367 131.982H793.283C793.283 131.197 793.535 130.562 794.039 130.078C794.547 129.594 795.225 129.352 796.072 129.352C796.865 129.352 797.492 129.561 797.953 129.979C798.414 130.393 798.645 130.945 798.645 131.637C798.645 132.477 798.109 133.477 797.039 134.637L794.754 137.115H799.037V138ZM804.762 135.135H805.945V136.02H804.762V138H803.672V136.02H799.787V135.381L803.607 129.469H804.762V135.135ZM801.018 135.135H803.672V130.951L803.543 131.186L801.018 135.135ZM807.422 133.723L807.855 129.469H812.227V130.471H808.775L808.518 132.797C808.936 132.551 809.41 132.428 809.941 132.428C810.719 132.428 811.336 132.686 811.793 133.201C812.25 133.713 812.479 134.406 812.479 135.281C812.479 136.16 812.24 136.854 811.764 137.361C811.291 137.865 810.629 138.117 809.777 138.117C809.023 138.117 808.408 137.908 807.932 137.49C807.455 137.072 807.184 136.494 807.117 135.756H808.143C808.209 136.244 808.383 136.613 808.664 136.863C808.945 137.109 809.316 137.232 809.777 137.232C810.281 137.232 810.676 137.061 810.961 136.717C811.25 136.373 811.395 135.898 811.395 135.293C811.395 134.723 811.238 134.266 810.926 133.922C810.617 133.574 810.205 133.4 809.689 133.4C809.217 133.4 808.846 133.504 808.576 133.711L808.289 133.945L807.422 133.723ZM819.012 134.361C819.012 135.631 818.795 136.574 818.361 137.191C817.928 137.809 817.25 138.117 816.328 138.117C815.418 138.117 814.744 137.816 814.307 137.215C813.869 136.609 813.643 135.707 813.627 134.508V133.061C813.627 131.807 813.844 130.875 814.277 130.266C814.711 129.656 815.391 129.352 816.316 129.352C817.234 129.352 817.91 129.646 818.344 130.236C818.777 130.822 819 131.729 819.012 132.955V134.361ZM817.928 132.879C817.928 131.961 817.799 131.293 817.541 130.875C817.283 130.453 816.875 130.242 816.316 130.242C815.762 130.242 815.357 130.451 815.104 130.869C814.85 131.287 814.719 131.93 814.711 132.797V134.531C814.711 135.453 814.844 136.135 815.109 136.576C815.379 137.014 815.785 137.232 816.328 137.232C816.863 137.232 817.26 137.025 817.518 136.611C817.779 136.197 817.916 135.545 817.928 134.654V132.879ZM820.477 139.699L819.861 139.277C820.229 138.766 820.42 138.238 820.436 137.695V136.717H821.496V137.566C821.496 137.961 821.398 138.355 821.203 138.75C821.012 139.145 820.77 139.461 820.477 139.699ZM828.105 134.361C828.105 135.631 827.889 136.574 827.455 137.191C827.021 137.809 826.344 138.117 825.422 138.117C824.512 138.117 823.838 137.816 823.4 137.215C822.963 136.609 822.736 135.707 822.721 134.508V133.061C822.721 131.807 822.938 130.875 823.371 130.266C823.805 129.656 824.484 129.352 825.41 129.352C826.328 129.352 827.004 129.646 827.438 130.236C827.871 130.822 828.094 131.729 828.105 132.955V134.361ZM827.021 132.879C827.021 131.961 826.893 131.293 826.635 130.875C826.377 130.453 825.969 130.242 825.41 130.242C824.855 130.242 824.451 130.451 824.197 130.869C823.943 131.287 823.812 131.93 823.805 132.797V134.531C823.805 135.453 823.938 136.135 824.203 136.576C824.473 137.014 824.879 137.232 825.422 137.232C825.957 137.232 826.354 137.025 826.611 136.611C826.873 136.197 827.01 135.545 827.021 134.654V132.879ZM834.844 134.361C834.844 135.631 834.627 136.574 834.193 137.191C833.76 137.809 833.082 138.117 832.16 138.117C831.25 138.117 830.576 137.816 830.139 137.215C829.701 136.609 829.475 135.707 829.459 134.508V133.061C829.459 131.807 829.676 130.875 830.109 130.266C830.543 129.656 831.223 129.352 832.148 129.352C833.066 129.352 833.742 129.646 834.176 130.236C834.609 130.822 834.832 131.729 834.844 132.955V134.361ZM833.76 132.879C833.76 131.961 833.631 131.293 833.373 130.875C833.115 130.453 832.707 130.242 832.148 130.242C831.594 130.242 831.189 130.451 830.936 130.869C830.682 131.287 830.551 131.93 830.543 132.797V134.531C830.543 135.453 830.676 136.135 830.941 136.576C831.211 137.014 831.617 137.232 832.16 137.232C832.695 137.232 833.092 137.025 833.35 136.611C833.611 136.197 833.748 135.545 833.76 134.654V132.879Z" fill="#CBD1E6"/>
<path d="M30 144H780" stroke="#F1F3FF" stroke-dasharray="10 10"/>
<path opacity="0.1" d="M30 314H780" stroke="#F1F3FF"/>
<path opacity="0.1" d="M30 254H780" stroke="#F1F3FF"/>
<path opacity="0.1" d="M30 194H780" stroke="#F1F3FF"/>
<path opacity="0.1" d="M30 134H780" stroke="#F1F3FF"/>
<path opacity="0.1" d="M30 74H780" stroke="#F1F3FF"/>
<path d="M30 114L82.7157 167.858L135.431 155.48L189.744 180.235L244.856 132.064L297.396 144.776L351.885 290.626L405 267.21L459.712 165.516L511.797 213.018L565.144 208L619.457 247.808L673.77 219.708L731 224L779.5 189" stroke="#FF6C40" stroke-width="4" stroke-linecap="round"/>
<path fill-rule="evenodd" clip-rule="evenodd" d="M297 154C302.523 154 307 149.523 307 144C307 138.477 302.523 134 297 134C291.477 134 287 138.477 287 144C287 149.523 291.477 154 297 154Z" fill="white"/>
<path fill-rule="evenodd" clip-rule="evenodd" d="M297 148C299.209 148 301 146.209 301 144C301 141.791 299.209 140 297 140C294.791 140 293 141.791 293 144C293 146.209 294.791 148 297 148Z" fill="#FFE700"/>
<g filter="url(#filter0_d)">
<path fill-rule="evenodd" clip-rule="evenodd" d="M259 94C258.448 94 258 94.4477 258 95V121C258 121.552 258.448 122 259 122H290.596L296.106 128.166C296.503 128.61 297.199 128.61 297.597 128.166L303.106 122H336C336.552 122 337 121.552 337 121V95C337 94.4477 336.552 94 336 94H259Z" fill="white"/>
<path d="M273.355 113H271.701V105.009L269.261 105.843V104.441L273.144 103.013H273.355V113ZM283.507 113H276.814V111.858L280.13 108.242C280.608 107.709 280.948 107.265 281.148 106.909C281.354 106.549 281.456 106.189 281.456 105.829C281.456 105.355 281.322 104.972 281.053 104.681C280.788 104.389 280.431 104.243 279.979 104.243C279.442 104.243 279.025 104.407 278.729 104.735C278.432 105.063 278.284 105.512 278.284 106.082H276.623C276.623 105.476 276.76 104.931 277.033 104.448C277.311 103.961 277.705 103.582 278.216 103.313C278.731 103.045 279.323 102.91 279.993 102.91C280.959 102.91 281.72 103.154 282.276 103.642C282.837 104.125 283.117 104.795 283.117 105.651C283.117 106.148 282.976 106.67 282.693 107.217C282.415 107.759 281.957 108.377 281.319 109.069L278.886 111.674H283.507V113ZM286.692 107.265H287.704C288.215 107.26 288.618 107.128 288.914 106.868C289.215 106.608 289.365 106.232 289.365 105.74C289.365 105.266 289.24 104.899 288.989 104.64C288.743 104.375 288.365 104.243 287.854 104.243C287.408 104.243 287.041 104.373 286.754 104.633C286.467 104.888 286.323 105.223 286.323 105.638H284.662C284.662 105.127 284.797 104.662 285.065 104.243C285.339 103.824 285.717 103.498 286.2 103.266C286.688 103.029 287.232 102.91 287.834 102.91C288.827 102.91 289.607 103.161 290.172 103.662C290.742 104.159 291.026 104.852 291.026 105.74C291.026 106.187 290.883 106.608 290.596 107.005C290.313 107.397 289.946 107.693 289.495 107.894C290.042 108.08 290.457 108.374 290.739 108.775C291.026 109.176 291.17 109.655 291.17 110.211C291.17 111.104 290.862 111.815 290.247 112.344C289.636 112.872 288.832 113.137 287.834 113.137C286.877 113.137 286.093 112.882 285.482 112.371C284.872 111.861 284.566 111.182 284.566 110.334H286.228C286.228 110.771 286.373 111.127 286.665 111.4C286.961 111.674 287.358 111.811 287.854 111.811C288.369 111.811 288.775 111.674 289.071 111.4C289.368 111.127 289.516 110.73 289.516 110.211C289.516 109.687 289.361 109.284 289.051 109.001C288.741 108.718 288.281 108.577 287.67 108.577H286.692V107.265ZM293.173 108.064L293.713 103.047H299.059V104.482H295.094L294.82 106.861C295.281 106.597 295.8 106.465 296.379 106.465C297.327 106.465 298.063 106.768 298.587 107.374C299.116 107.98 299.38 108.796 299.38 109.821C299.38 110.833 299.088 111.64 298.505 112.241C297.922 112.838 297.122 113.137 296.105 113.137C295.194 113.137 294.438 112.879 293.836 112.364C293.239 111.845 292.915 111.161 292.865 110.313H294.472C294.535 110.797 294.709 111.168 294.991 111.428C295.274 111.683 295.643 111.811 296.099 111.811C296.609 111.811 297.006 111.628 297.288 111.264C297.575 110.899 297.719 110.402 297.719 109.773C297.719 109.167 297.562 108.689 297.247 108.338C296.933 107.982 296.5 107.805 295.948 107.805C295.647 107.805 295.392 107.846 295.183 107.928C294.973 108.005 294.745 108.16 294.499 108.393L293.173 108.064ZM307.173 108.81C307.173 110.241 306.904 111.321 306.366 112.05C305.833 112.774 305.02 113.137 303.926 113.137C302.85 113.137 302.039 112.784 301.492 112.077C300.95 111.366 300.672 110.316 300.658 108.926V107.203C300.658 105.772 300.925 104.699 301.458 103.983C301.996 103.268 302.814 102.91 303.912 102.91C305.001 102.91 305.812 103.259 306.346 103.956C306.883 104.653 307.159 105.697 307.173 107.087V108.81ZM305.512 106.95C305.512 106.016 305.384 105.332 305.129 104.899C304.874 104.462 304.468 104.243 303.912 104.243C303.37 104.243 302.971 104.451 302.716 104.865C302.461 105.275 302.326 105.918 302.312 106.793V109.049C302.312 109.979 302.442 110.671 302.702 111.127C302.962 111.583 303.37 111.811 303.926 111.811C304.459 111.811 304.853 111.601 305.108 111.182C305.364 110.758 305.498 110.097 305.512 109.199V106.95ZM308.984 115.242L308.089 114.709C308.353 114.294 308.533 113.932 308.629 113.622C308.729 113.317 308.782 113.005 308.786 112.686V111.394H310.283L310.276 112.59C310.272 113.073 310.149 113.556 309.907 114.039C309.67 114.527 309.363 114.928 308.984 115.242ZM318.206 108.81C318.206 110.241 317.937 111.321 317.399 112.05C316.866 112.774 316.053 113.137 314.959 113.137C313.883 113.137 313.072 112.784 312.525 112.077C311.983 111.366 311.705 110.316 311.691 108.926V107.203C311.691 105.772 311.958 104.699 312.491 103.983C313.029 103.268 313.847 102.91 314.945 102.91C316.035 102.91 316.846 103.259 317.379 103.956C317.917 104.653 318.192 105.697 318.206 107.087V108.81ZM316.545 106.95C316.545 106.016 316.417 105.332 316.162 104.899C315.907 104.462 315.501 104.243 314.945 104.243C314.403 104.243 314.004 104.451 313.749 104.865C313.494 105.275 313.359 105.918 313.346 106.793V109.049C313.346 109.979 313.476 110.671 313.735 111.127C313.995 111.583 314.403 111.811 314.959 111.811C315.492 111.811 315.886 111.601 316.142 111.182C316.397 110.758 316.531 110.097 316.545 109.199V106.95ZM326.163 108.81C326.163 110.241 325.894 111.321 325.356 112.05C324.823 112.774 324.01 113.137 322.916 113.137C321.84 113.137 321.029 112.784 320.482 112.077C319.94 111.366 319.662 110.316 319.648 108.926V107.203C319.648 105.772 319.915 104.699 320.448 103.983C320.986 103.268 321.804 102.91 322.902 102.91C323.992 102.91 324.803 103.259 325.336 103.956C325.874 104.653 326.149 105.697 326.163 107.087V108.81ZM324.502 106.95C324.502 106.016 324.374 105.332 324.119 104.899C323.864 104.462 323.458 104.243 322.902 104.243C322.36 104.243 321.961 104.451 321.706 104.865C321.451 105.275 321.316 105.918 321.303 106.793V109.049C321.303 109.979 321.433 110.671 321.692 111.127C321.952 111.583 322.36 111.811 322.916 111.811C323.449 111.811 323.843 111.601 324.099 111.182C324.354 110.758 324.488 110.097 324.502 109.199V106.95Z" fill="#505D6F"/>
</g>
<path opacity="0.1" d="M30 314V74" stroke="#F1F3FF"/>
<path opacity="0.1" d="M80 314V74" stroke="#F1F3FF"/>
<path opacity="0.1" d="M130 314V74" stroke="#F1F3FF"/>
<path opacity="0.1" d="M180 314V74" stroke="#F1F3FF"/>
<path opacity="0.1" d="M230 314V74" stroke="#F1F3FF"/>
<path opacity="0.1" d="M280 314V74" stroke="#F1F3FF"/>
<path opacity="0.1" d="M330 314V74" stroke="#F1F3FF"/>
<path opacity="0.1" d="M380 314V74" stroke="#F1F3FF"/>
<path opacity="0.1" d="M430 314V74" stroke="#F1F3FF"/>
<path opacity="0.1" d="M480 314V74" stroke="#F1F3FF"/>
<path opacity="0.1" d="M530 314V74" stroke="#F1F3FF"/>
<path opacity="0.1" d="M580 314V74" stroke="#F1F3FF"/>
<path opacity="0.1" d="M630 314V74" stroke="#F1F3FF"/>
<path opacity="0.1" d="M680 314V74" stroke="#F1F3FF"/>
<path opacity="0.1" d="M730 314V74" stroke="#F1F3FF"/>
<path opacity="0.1" d="M780 314V74" stroke="#F1F3FF"/>
<path d="M34.2715 336H33.1816V328.775L30.9961 329.578V328.594L34.1016 327.428H34.2715V336ZM42.7969 332.361C42.7969 333.631 42.5801 334.574 42.1465 335.191C41.7129 335.809 41.0352 336.117 40.1133 336.117C39.2031 336.117 38.5293 335.816 38.0918 335.215C37.6543 334.609 37.4277 333.707 37.4121 332.508V331.061C37.4121 329.807 37.6289 328.875 38.0625 328.266C38.4961 327.656 39.1758 327.352 40.1016 327.352C41.0195 327.352 41.6953 327.646 42.1289 328.236C42.5625 328.822 42.7852 329.729 42.7969 330.955V332.361ZM41.7129 330.879C41.7129 329.961 41.584 329.293 41.3262 328.875C41.0684 328.453 40.6602 328.242 40.1016 328.242C39.5469 328.242 39.1426 328.451 38.8887 328.869C38.6348 329.287 38.5039 329.93 38.4961 330.797V332.531C38.4961 333.453 38.6289 334.135 38.8945 334.576C39.1641 335.014 39.5703 335.232 40.1133 335.232C40.6484 335.232 41.0449 335.025 41.3027 334.611C41.5645 334.197 41.7012 333.545 41.7129 332.654V330.879ZM44.2617 335.432C44.2617 335.244 44.3164 335.088 44.4258 334.963C44.5391 334.838 44.707 334.775 44.9297 334.775C45.1523 334.775 45.3203 334.838 45.4336 334.963C45.5508 335.088 45.6094 335.244 45.6094 335.432C45.6094 335.611 45.5508 335.762 45.4336 335.883C45.3203 336.004 45.1523 336.064 44.9297 336.064C44.707 336.064 44.5391 336.004 44.4258 335.883C44.3164 335.762 44.2617 335.611 44.2617 335.432ZM44.2676 330.258C44.2676 330.07 44.3223 329.914 44.4316 329.789C44.5449 329.664 44.7129 329.602 44.9355 329.602C45.1582 329.602 45.3262 329.664 45.4395 329.789C45.5566 329.914 45.6152 330.07 45.6152 330.258C45.6152 330.438 45.5566 330.588 45.4395 330.709C45.3262 330.83 45.1582 330.891 44.9355 330.891C44.7129 330.891 44.5449 330.83 44.4316 330.709C44.3223 330.588 44.2676 330.438 44.2676 330.258ZM50.6543 336H49.5645V328.775L47.3789 329.578V328.594L50.4844 327.428H50.6543V336ZM59.1797 332.361C59.1797 333.631 58.9629 334.574 58.5293 335.191C58.0957 335.809 57.418 336.117 56.4961 336.117C55.5859 336.117 54.9121 335.816 54.4746 335.215C54.0371 334.609 53.8105 333.707 53.7949 332.508V331.061C53.7949 329.807 54.0117 328.875 54.4453 328.266C54.8789 327.656 55.5586 327.352 56.4844 327.352C57.4023 327.352 58.0781 327.646 58.5117 328.236C58.9453 328.822 59.168 329.729 59.1797 330.955V332.361ZM58.0957 330.879C58.0957 329.961 57.9668 329.293 57.709 328.875C57.4512 328.453 57.043 328.242 56.4844 328.242C55.9297 328.242 55.5254 328.451 55.2715 328.869C55.0176 329.287 54.8867 329.93 54.8789 330.797V332.531C54.8789 333.453 55.0117 334.135 55.2773 334.576C55.5469 335.014 55.9531 335.232 56.4961 335.232C57.0312 335.232 57.4277 335.025 57.6855 334.611C57.9473 334.197 58.084 333.545 58.0957 332.654V330.879Z" fill="#CBD1E6"/>
<path d="M84.2715 336H83.1816V328.775L80.9961 329.578V328.594L84.1016 327.428H84.2715V336ZM92.7969 332.361C92.7969 333.631 92.5801 334.574 92.1465 335.191C91.7129 335.809 91.0352 336.117 90.1133 336.117C89.2031 336.117 88.5293 335.816 88.0918 335.215C87.6543 334.609 87.4277 333.707 87.4121 332.508V331.061C87.4121 329.807 87.6289 328.875 88.0625 328.266C88.4961 327.656 89.1758 327.352 90.1016 327.352C91.0195 327.352 91.6953 327.646 92.1289 328.236C92.5625 328.822 92.7852 329.729 92.7969 330.955V332.361ZM91.7129 330.879C91.7129 329.961 91.584 329.293 91.3262 328.875C91.0684 328.453 90.6602 328.242 90.1016 328.242C89.5469 328.242 89.1426 328.451 88.8887 328.869C88.6348 329.287 88.5039 329.93 88.4961 330.797V332.531C88.4961 333.453 88.6289 334.135 88.8945 334.576C89.1641 335.014 89.5703 335.232 90.1133 335.232C90.6484 335.232 91.0449 335.025 91.3027 334.611C91.5645 334.197 91.7012 333.545 91.7129 332.654V330.879ZM94.2617 335.432C94.2617 335.244 94.3164 335.088 94.4258 334.963C94.5391 334.838 94.707 334.775 94.9297 334.775C95.1523 334.775 95.3203 334.838 95.4336 334.963C95.5508 335.088 95.6094 335.244 95.6094 335.432C95.6094 335.611 95.5508 335.762 95.4336 335.883C95.3203 336.004 95.1523 336.064 94.9297 336.064C94.707 336.064 94.5391 336.004 94.4258 335.883C94.3164 335.762 94.2617 335.611 94.2617 335.432ZM94.2676 330.258C94.2676 330.07 94.3223 329.914 94.4316 329.789C94.5449 329.664 94.7129 329.602 94.9355 329.602C95.1582 329.602 95.3262 329.664 95.4395 329.789C95.5566 329.914 95.6152 330.07 95.6152 330.258C95.6152 330.438 95.5566 330.588 95.4395 330.709C95.3262 330.83 95.1582 330.891 94.9355 330.891C94.7129 330.891 94.5449 330.83 94.4316 330.709C94.3223 330.588 94.2676 330.438 94.2676 330.258ZM100.654 336H99.5645V328.775L97.3789 329.578V328.594L100.484 327.428H100.654V336ZM104.328 331.723L104.762 327.469H109.133V328.471H105.682L105.424 330.797C105.842 330.551 106.316 330.428 106.848 330.428C107.625 330.428 108.242 330.686 108.699 331.201C109.156 331.713 109.385 332.406 109.385 333.281C109.385 334.16 109.146 334.854 108.67 335.361C108.197 335.865 107.535 336.117 106.684 336.117C105.93 336.117 105.314 335.908 104.838 335.49C104.361 335.072 104.09 334.494 104.023 333.756H105.049C105.115 334.244 105.289 334.613 105.57 334.863C105.852 335.109 106.223 335.232 106.684 335.232C107.188 335.232 107.582 335.061 107.867 334.717C108.156 334.373 108.301 333.898 108.301 333.293C108.301 332.723 108.145 332.266 107.832 331.922C107.523 331.574 107.111 331.4 106.596 331.4C106.123 331.4 105.752 331.504 105.482 331.711L105.195 331.945L104.328 331.723Z" fill="#CBD1E6"/>
<path d="M134.271 336H133.182V328.775L130.996 329.578V328.594L134.102 327.428H134.271V336ZM142.797 332.361C142.797 333.631 142.58 334.574 142.146 335.191C141.713 335.809 141.035 336.117 140.113 336.117C139.203 336.117 138.529 335.816 138.092 335.215C137.654 334.609 137.428 333.707 137.412 332.508V331.061C137.412 329.807 137.629 328.875 138.062 328.266C138.496 327.656 139.176 327.352 140.102 327.352C141.02 327.352 141.695 327.646 142.129 328.236C142.562 328.822 142.785 329.729 142.797 330.955V332.361ZM141.713 330.879C141.713 329.961 141.584 329.293 141.326 328.875C141.068 328.453 140.66 328.242 140.102 328.242C139.547 328.242 139.143 328.451 138.889 328.869C138.635 329.287 138.504 329.93 138.496 330.797V332.531C138.496 333.453 138.629 334.135 138.895 334.576C139.164 335.014 139.57 335.232 140.113 335.232C140.648 335.232 141.045 335.025 141.303 334.611C141.564 334.197 141.701 333.545 141.713 332.654V330.879ZM144.262 335.432C144.262 335.244 144.316 335.088 144.426 334.963C144.539 334.838 144.707 334.775 144.93 334.775C145.152 334.775 145.32 334.838 145.434 334.963C145.551 335.088 145.609 335.244 145.609 335.432C145.609 335.611 145.551 335.762 145.434 335.883C145.32 336.004 145.152 336.064 144.93 336.064C144.707 336.064 144.539 336.004 144.426 335.883C144.316 335.762 144.262 335.611 144.262 335.432ZM144.268 330.258C144.268 330.07 144.322 329.914 144.432 329.789C144.545 329.664 144.713 329.602 144.936 329.602C145.158 329.602 145.326 329.664 145.439 329.789C145.557 329.914 145.615 330.07 145.615 330.258C145.615 330.438 145.557 330.588 145.439 330.709C145.326 330.83 145.158 330.891 144.936 330.891C144.713 330.891 144.545 330.83 144.432 330.709C144.322 330.588 144.268 330.438 144.268 330.258ZM152.682 336H147.092V335.221L150.045 331.939C150.482 331.443 150.783 331.041 150.947 330.732C151.115 330.42 151.199 330.098 151.199 329.766C151.199 329.32 151.064 328.955 150.795 328.67C150.525 328.385 150.166 328.242 149.717 328.242C149.178 328.242 148.758 328.396 148.457 328.705C148.16 329.01 148.012 329.436 148.012 329.982H146.928C146.928 329.197 147.18 328.562 147.684 328.078C148.191 327.594 148.869 327.352 149.717 327.352C150.51 327.352 151.137 327.561 151.598 327.979C152.059 328.393 152.289 328.945 152.289 329.637C152.289 330.477 151.754 331.477 150.684 332.637L148.398 335.115H152.682V336ZM159.18 332.361C159.18 333.631 158.963 334.574 158.529 335.191C158.096 335.809 157.418 336.117 156.496 336.117C155.586 336.117 154.912 335.816 154.475 335.215C154.037 334.609 153.811 333.707 153.795 332.508V331.061C153.795 329.807 154.012 328.875 154.445 328.266C154.879 327.656 155.559 327.352 156.484 327.352C157.402 327.352 158.078 327.646 158.512 328.236C158.945 328.822 159.168 329.729 159.18 330.955V332.361ZM158.096 330.879C158.096 329.961 157.967 329.293 157.709 328.875C157.451 328.453 157.043 328.242 156.484 328.242C155.93 328.242 155.525 328.451 155.271 328.869C155.018 329.287 154.887 329.93 154.879 330.797V332.531C154.879 333.453 155.012 334.135 155.277 334.576C155.547 335.014 155.953 335.232 156.496 335.232C157.031 335.232 157.428 335.025 157.686 334.611C157.947 334.197 158.084 333.545 158.096 332.654V330.879Z" fill="#CBD1E6"/>
<path d="M184.271 336H183.182V328.775L180.996 329.578V328.594L184.102 327.428H184.271V336ZM192.797 332.361C192.797 333.631 192.58 334.574 192.146 335.191C191.713 335.809 191.035 336.117 190.113 336.117C189.203 336.117 188.529 335.816 188.092 335.215C187.654 334.609 187.428 333.707 187.412 332.508V331.061C187.412 329.807 187.629 328.875 188.062 328.266C188.496 327.656 189.176 327.352 190.102 327.352C191.02 327.352 191.695 327.646 192.129 328.236C192.562 328.822 192.785 329.729 192.797 330.955V332.361ZM191.713 330.879C191.713 329.961 191.584 329.293 191.326 328.875C191.068 328.453 190.66 328.242 190.102 328.242C189.547 328.242 189.143 328.451 188.889 328.869C188.635 329.287 188.504 329.93 188.496 330.797V332.531C188.496 333.453 188.629 334.135 188.895 334.576C189.164 335.014 189.57 335.232 190.113 335.232C190.648 335.232 191.045 335.025 191.303 334.611C191.564 334.197 191.701 333.545 191.713 332.654V330.879ZM194.262 335.432C194.262 335.244 194.316 335.088 194.426 334.963C194.539 334.838 194.707 334.775 194.93 334.775C195.152 334.775 195.32 334.838 195.434 334.963C195.551 335.088 195.609 335.244 195.609 335.432C195.609 335.611 195.551 335.762 195.434 335.883C195.32 336.004 195.152 336.064 194.93 336.064C194.707 336.064 194.539 336.004 194.426 335.883C194.316 335.762 194.262 335.611 194.262 335.432ZM194.268 330.258C194.268 330.07 194.322 329.914 194.432 329.789C194.545 329.664 194.713 329.602 194.936 329.602C195.158 329.602 195.326 329.664 195.439 329.789C195.557 329.914 195.615 330.07 195.615 330.258C195.615 330.438 195.557 330.588 195.439 330.709C195.326 330.83 195.158 330.891 194.936 330.891C194.713 330.891 194.545 330.83 194.432 330.709C194.322 330.588 194.268 330.438 194.268 330.258ZM202.682 336H197.092V335.221L200.045 331.939C200.482 331.443 200.783 331.041 200.947 330.732C201.115 330.42 201.199 330.098 201.199 329.766C201.199 329.32 201.064 328.955 200.795 328.67C200.525 328.385 200.166 328.242 199.717 328.242C199.178 328.242 198.758 328.396 198.457 328.705C198.16 329.01 198.012 329.436 198.012 329.982H196.928C196.928 329.197 197.18 328.562 197.684 328.078C198.191 327.594 198.869 327.352 199.717 327.352C200.51 327.352 201.137 327.561 201.598 327.979C202.059 328.393 202.289 328.945 202.289 329.637C202.289 330.477 201.754 331.477 200.684 332.637L198.398 335.115H202.682V336ZM204.328 331.723L204.762 327.469H209.133V328.471H205.682L205.424 330.797C205.842 330.551 206.316 330.428 206.848 330.428C207.625 330.428 208.242 330.686 208.699 331.201C209.156 331.713 209.385 332.406 209.385 333.281C209.385 334.16 209.146 334.854 208.67 335.361C208.197 335.865 207.535 336.117 206.684 336.117C205.93 336.117 205.314 335.908 204.838 335.49C204.361 335.072 204.09 334.494 204.023 333.756H205.049C205.115 334.244 205.289 334.613 205.57 334.863C205.852 335.109 206.223 335.232 206.684 335.232C207.188 335.232 207.582 335.061 207.867 334.717C208.156 334.373 208.301 333.898 208.301 333.293C208.301 332.723 208.145 332.266 207.832 331.922C207.523 331.574 207.111 331.4 206.596 331.4C206.123 331.4 205.752 331.504 205.482 331.711L205.195 331.945L204.328 331.723Z" fill="#CBD1E6"/>
<path d="M234.271 336H233.182V328.775L230.996 329.578V328.594L234.102 327.428H234.271V336ZM242.797 332.361C242.797 333.631 242.58 334.574 242.146 335.191C241.713 335.809 241.035 336.117 240.113 336.117C239.203 336.117 238.529 335.816 238.092 335.215C237.654 334.609 237.428 333.707 237.412 332.508V331.061C237.412 329.807 237.629 328.875 238.062 328.266C238.496 327.656 239.176 327.352 240.102 327.352C241.02 327.352 241.695 327.646 242.129 328.236C242.562 328.822 242.785 329.729 242.797 330.955V332.361ZM241.713 330.879C241.713 329.961 241.584 329.293 241.326 328.875C241.068 328.453 240.66 328.242 240.102 328.242C239.547 328.242 239.143 328.451 238.889 328.869C238.635 329.287 238.504 329.93 238.496 330.797V332.531C238.496 333.453 238.629 334.135 238.895 334.576C239.164 335.014 239.57 335.232 240.113 335.232C240.648 335.232 241.045 335.025 241.303 334.611C241.564 334.197 241.701 333.545 241.713 332.654V330.879ZM244.262 335.432C244.262 335.244 244.316 335.088 244.426 334.963C244.539 334.838 244.707 334.775 244.93 334.775C245.152 334.775 245.32 334.838 245.434 334.963C245.551 335.088 245.609 335.244 245.609 335.432C245.609 335.611 245.551 335.762 245.434 335.883C245.32 336.004 245.152 336.064 244.93 336.064C244.707 336.064 244.539 336.004 244.426 335.883C244.316 335.762 244.262 335.611 244.262 335.432ZM244.268 330.258C244.268 330.07 244.322 329.914 244.432 329.789C244.545 329.664 244.713 329.602 244.936 329.602C245.158 329.602 245.326 329.664 245.439 329.789C245.557 329.914 245.615 330.07 245.615 330.258C245.615 330.438 245.557 330.588 245.439 330.709C245.326 330.83 245.158 330.891 244.936 330.891C244.713 330.891 244.545 330.83 244.432 330.709C244.322 330.588 244.268 330.438 244.268 330.258ZM248.668 331.207H249.482C249.994 331.199 250.396 331.064 250.689 330.803C250.982 330.541 251.129 330.188 251.129 329.742C251.129 328.742 250.631 328.242 249.635 328.242C249.166 328.242 248.791 328.377 248.51 328.646C248.232 328.912 248.094 329.266 248.094 329.707H247.01C247.01 329.031 247.256 328.471 247.748 328.025C248.244 327.576 248.873 327.352 249.635 327.352C250.439 327.352 251.07 327.564 251.527 327.99C251.984 328.416 252.213 329.008 252.213 329.766C252.213 330.137 252.092 330.496 251.85 330.844C251.611 331.191 251.285 331.451 250.871 331.623C251.34 331.771 251.701 332.018 251.955 332.361C252.213 332.705 252.342 333.125 252.342 333.621C252.342 334.387 252.092 334.994 251.592 335.443C251.092 335.893 250.441 336.117 249.641 336.117C248.84 336.117 248.188 335.9 247.684 335.467C247.184 335.033 246.934 334.461 246.934 333.75H248.023C248.023 334.199 248.17 334.559 248.463 334.828C248.756 335.098 249.148 335.232 249.641 335.232C250.164 335.232 250.564 335.096 250.842 334.822C251.119 334.549 251.258 334.156 251.258 333.645C251.258 333.148 251.105 332.768 250.801 332.502C250.496 332.236 250.057 332.1 249.482 332.092H248.668V331.207ZM259.18 332.361C259.18 333.631 258.963 334.574 258.529 335.191C258.096 335.809 257.418 336.117 256.496 336.117C255.586 336.117 254.912 335.816 254.475 335.215C254.037 334.609 253.811 333.707 253.795 332.508V331.061C253.795 329.807 254.012 328.875 254.445 328.266C254.879 327.656 255.559 327.352 256.484 327.352C257.402 327.352 258.078 327.646 258.512 328.236C258.945 328.822 259.168 329.729 259.18 330.955V332.361ZM258.096 330.879C258.096 329.961 257.967 329.293 257.709 328.875C257.451 328.453 257.043 328.242 256.484 328.242C255.93 328.242 255.525 328.451 255.271 328.869C255.018 329.287 254.887 329.93 254.879 330.797V332.531C254.879 333.453 255.012 334.135 255.277 334.576C255.547 335.014 255.953 335.232 256.496 335.232C257.031 335.232 257.428 335.025 257.686 334.611C257.947 334.197 258.084 333.545 258.096 332.654V330.879Z" fill="#CBD1E6"/>
<path d="M284.271 336H283.182V328.775L280.996 329.578V328.594L284.102 327.428H284.271V336ZM292.797 332.361C292.797 333.631 292.58 334.574 292.146 335.191C291.713 335.809 291.035 336.117 290.113 336.117C289.203 336.117 288.529 335.816 288.092 335.215C287.654 334.609 287.428 333.707 287.412 332.508V331.061C287.412 329.807 287.629 328.875 288.062 328.266C288.496 327.656 289.176 327.352 290.102 327.352C291.02 327.352 291.695 327.646 292.129 328.236C292.562 328.822 292.785 329.729 292.797 330.955V332.361ZM291.713 330.879C291.713 329.961 291.584 329.293 291.326 328.875C291.068 328.453 290.66 328.242 290.102 328.242C289.547 328.242 289.143 328.451 288.889 328.869C288.635 329.287 288.504 329.93 288.496 330.797V332.531C288.496 333.453 288.629 334.135 288.895 334.576C289.164 335.014 289.57 335.232 290.113 335.232C290.648 335.232 291.045 335.025 291.303 334.611C291.564 334.197 291.701 333.545 291.713 332.654V330.879ZM294.262 335.432C294.262 335.244 294.316 335.088 294.426 334.963C294.539 334.838 294.707 334.775 294.93 334.775C295.152 334.775 295.32 334.838 295.434 334.963C295.551 335.088 295.609 335.244 295.609 335.432C295.609 335.611 295.551 335.762 295.434 335.883C295.32 336.004 295.152 336.064 294.93 336.064C294.707 336.064 294.539 336.004 294.426 335.883C294.316 335.762 294.262 335.611 294.262 335.432ZM294.268 330.258C294.268 330.07 294.322 329.914 294.432 329.789C294.545 329.664 294.713 329.602 294.936 329.602C295.158 329.602 295.326 329.664 295.439 329.789C295.557 329.914 295.615 330.07 295.615 330.258C295.615 330.438 295.557 330.588 295.439 330.709C295.326 330.83 295.158 330.891 294.936 330.891C294.713 330.891 294.545 330.83 294.432 330.709C294.322 330.588 294.268 330.438 294.268 330.258ZM298.668 331.207H299.482C299.994 331.199 300.396 331.064 300.689 330.803C300.982 330.541 301.129 330.188 301.129 329.742C301.129 328.742 300.631 328.242 299.635 328.242C299.166 328.242 298.791 328.377 298.51 328.646C298.232 328.912 298.094 329.266 298.094 329.707H297.01C297.01 329.031 297.256 328.471 297.748 328.025C298.244 327.576 298.873 327.352 299.635 327.352C300.439 327.352 301.07 327.564 301.527 327.99C301.984 328.416 302.213 329.008 302.213 329.766C302.213 330.137 302.092 330.496 301.85 330.844C301.611 331.191 301.285 331.451 300.871 331.623C301.34 331.771 301.701 332.018 301.955 332.361C302.213 332.705 302.342 333.125 302.342 333.621C302.342 334.387 302.092 334.994 301.592 335.443C301.092 335.893 300.441 336.117 299.641 336.117C298.84 336.117 298.188 335.9 297.684 335.467C297.184 335.033 296.934 334.461 296.934 333.75H298.023C298.023 334.199 298.17 334.559 298.463 334.828C298.756 335.098 299.148 335.232 299.641 335.232C300.164 335.232 300.564 335.096 300.842 334.822C301.119 334.549 301.258 334.156 301.258 333.645C301.258 333.148 301.105 332.768 300.801 332.502C300.496 332.236 300.057 332.1 299.482 332.092H298.668V331.207ZM304.328 331.723L304.762 327.469H309.133V328.471H305.682L305.424 330.797C305.842 330.551 306.316 330.428 306.848 330.428C307.625 330.428 308.242 330.686 308.699 331.201C309.156 331.713 309.385 332.406 309.385 333.281C309.385 334.16 309.146 334.854 308.67 335.361C308.197 335.865 307.535 336.117 306.684 336.117C305.93 336.117 305.314 335.908 304.838 335.49C304.361 335.072 304.09 334.494 304.023 333.756H305.049C305.115 334.244 305.289 334.613 305.57 334.863C305.852 335.109 306.223 335.232 306.684 335.232C307.188 335.232 307.582 335.061 307.867 334.717C308.156 334.373 308.301 333.898 308.301 333.293C308.301 332.723 308.145 332.266 307.832 331.922C307.523 331.574 307.111 331.4 306.596 331.4C306.123 331.4 305.752 331.504 305.482 331.711L305.195 331.945L304.328 331.723Z" fill="#CBD1E6"/>
<path d="M334.271 336H333.182V328.775L330.996 329.578V328.594L334.102 327.428H334.271V336ZM342.797 332.361C342.797 333.631 342.58 334.574 342.146 335.191C341.713 335.809 341.035 336.117 340.113 336.117C339.203 336.117 338.529 335.816 338.092 335.215C337.654 334.609 337.428 333.707 337.412 332.508V331.061C337.412 329.807 337.629 328.875 338.062 328.266C338.496 327.656 339.176 327.352 340.102 327.352C341.02 327.352 341.695 327.646 342.129 328.236C342.562 328.822 342.785 329.729 342.797 330.955V332.361ZM341.713 330.879C341.713 329.961 341.584 329.293 341.326 328.875C341.068 328.453 340.66 328.242 340.102 328.242C339.547 328.242 339.143 328.451 338.889 328.869C338.635 329.287 338.504 329.93 338.496 330.797V332.531C338.496 333.453 338.629 334.135 338.895 334.576C339.164 335.014 339.57 335.232 340.113 335.232C340.648 335.232 341.045 335.025 341.303 334.611C341.564 334.197 341.701 333.545 341.713 332.654V330.879ZM344.262 335.432C344.262 335.244 344.316 335.088 344.426 334.963C344.539 334.838 344.707 334.775 344.93 334.775C345.152 334.775 345.32 334.838 345.434 334.963C345.551 335.088 345.609 335.244 345.609 335.432C345.609 335.611 345.551 335.762 345.434 335.883C345.32 336.004 345.152 336.064 344.93 336.064C344.707 336.064 344.539 336.004 344.426 335.883C344.316 335.762 344.262 335.611 344.262 335.432ZM344.268 330.258C344.268 330.07 344.322 329.914 344.432 329.789C344.545 329.664 344.713 329.602 344.936 329.602C345.158 329.602 345.326 329.664 345.439 329.789C345.557 329.914 345.615 330.07 345.615 330.258C345.615 330.438 345.557 330.588 345.439 330.709C345.326 330.83 345.158 330.891 344.936 330.891C344.713 330.891 344.545 330.83 344.432 330.709C344.322 330.588 344.268 330.438 344.268 330.258ZM351.668 333.135H352.852V334.02H351.668V336H350.578V334.02H346.693V333.381L350.514 327.469H351.668V333.135ZM347.924 333.135H350.578V328.951L350.449 329.186L347.924 333.135ZM359.18 332.361C359.18 333.631 358.963 334.574 358.529 335.191C358.096 335.809 357.418 336.117 356.496 336.117C355.586 336.117 354.912 335.816 354.475 335.215C354.037 334.609 353.811 333.707 353.795 332.508V331.061C353.795 329.807 354.012 328.875 354.445 328.266C354.879 327.656 355.559 327.352 356.484 327.352C357.402 327.352 358.078 327.646 358.512 328.236C358.945 328.822 359.168 329.729 359.18 330.955V332.361ZM358.096 330.879C358.096 329.961 357.967 329.293 357.709 328.875C357.451 328.453 357.043 328.242 356.484 328.242C355.93 328.242 355.525 328.451 355.271 328.869C355.018 329.287 354.887 329.93 354.879 330.797V332.531C354.879 333.453 355.012 334.135 355.277 334.576C355.547 335.014 355.953 335.232 356.496 335.232C357.031 335.232 357.428 335.025 357.686 334.611C357.947 334.197 358.084 333.545 358.096 332.654V330.879Z" fill="#CBD1E6"/>
<path d="M384.271 336H383.182V328.775L380.996 329.578V328.594L384.102 327.428H384.271V336ZM392.797 332.361C392.797 333.631 392.58 334.574 392.146 335.191C391.713 335.809 391.035 336.117 390.113 336.117C389.203 336.117 388.529 335.816 388.092 335.215C387.654 334.609 387.428 333.707 387.412 332.508V331.061C387.412 329.807 387.629 328.875 388.062 328.266C388.496 327.656 389.176 327.352 390.102 327.352C391.02 327.352 391.695 327.646 392.129 328.236C392.562 328.822 392.785 329.729 392.797 330.955V332.361ZM391.713 330.879C391.713 329.961 391.584 329.293 391.326 328.875C391.068 328.453 390.66 328.242 390.102 328.242C389.547 328.242 389.143 328.451 388.889 328.869C388.635 329.287 388.504 329.93 388.496 330.797V332.531C388.496 333.453 388.629 334.135 388.895 334.576C389.164 335.014 389.57 335.232 390.113 335.232C390.648 335.232 391.045 335.025 391.303 334.611C391.564 334.197 391.701 333.545 391.713 332.654V330.879ZM394.262 335.432C394.262 335.244 394.316 335.088 394.426 334.963C394.539 334.838 394.707 334.775 394.93 334.775C395.152 334.775 395.32 334.838 395.434 334.963C395.551 335.088 395.609 335.244 395.609 335.432C395.609 335.611 395.551 335.762 395.434 335.883C395.32 336.004 395.152 336.064 394.93 336.064C394.707 336.064 394.539 336.004 394.426 335.883C394.316 335.762 394.262 335.611 394.262 335.432ZM394.268 330.258C394.268 330.07 394.322 329.914 394.432 329.789C394.545 329.664 394.713 329.602 394.936 329.602C395.158 329.602 395.326 329.664 395.439 329.789C395.557 329.914 395.615 330.07 395.615 330.258C395.615 330.438 395.557 330.588 395.439 330.709C395.326 330.83 395.158 330.891 394.936 330.891C394.713 330.891 394.545 330.83 394.432 330.709C394.322 330.588 394.268 330.438 394.268 330.258ZM401.668 333.135H402.852V334.02H401.668V336H400.578V334.02H396.693V333.381L400.514 327.469H401.668V333.135ZM397.924 333.135H400.578V328.951L400.449 329.186L397.924 333.135ZM404.328 331.723L404.762 327.469H409.133V328.471H405.682L405.424 330.797C405.842 330.551 406.316 330.428 406.848 330.428C407.625 330.428 408.242 330.686 408.699 331.201C409.156 331.713 409.385 332.406 409.385 333.281C409.385 334.16 409.146 334.854 408.67 335.361C408.197 335.865 407.535 336.117 406.684 336.117C405.93 336.117 405.314 335.908 404.838 335.49C404.361 335.072 404.09 334.494 404.023 333.756H405.049C405.115 334.244 405.289 334.613 405.57 334.863C405.852 335.109 406.223 335.232 406.684 335.232C407.188 335.232 407.582 335.061 407.867 334.717C408.156 334.373 408.301 333.898 408.301 333.293C408.301 332.723 408.145 332.266 407.832 331.922C407.523 331.574 407.111 331.4 406.596 331.4C406.123 331.4 405.752 331.504 405.482 331.711L405.195 331.945L404.328 331.723Z" fill="#CBD1E6"/>
<path d="M434.271 336H433.182V328.775L430.996 329.578V328.594L434.102 327.428H434.271V336ZM442.797 332.361C442.797 333.631 442.58 334.574 442.146 335.191C441.713 335.809 441.035 336.117 440.113 336.117C439.203 336.117 438.529 335.816 438.092 335.215C437.654 334.609 437.428 333.707 437.412 332.508V331.061C437.412 329.807 437.629 328.875 438.062 328.266C438.496 327.656 439.176 327.352 440.102 327.352C441.02 327.352 441.695 327.646 442.129 328.236C442.562 328.822 442.785 329.729 442.797 330.955V332.361ZM441.713 330.879C441.713 329.961 441.584 329.293 441.326 328.875C441.068 328.453 440.66 328.242 440.102 328.242C439.547 328.242 439.143 328.451 438.889 328.869C438.635 329.287 438.504 329.93 438.496 330.797V332.531C438.496 333.453 438.629 334.135 438.895 334.576C439.164 335.014 439.57 335.232 440.113 335.232C440.648 335.232 441.045 335.025 441.303 334.611C441.564 334.197 441.701 333.545 441.713 332.654V330.879ZM444.262 335.432C444.262 335.244 444.316 335.088 444.426 334.963C444.539 334.838 444.707 334.775 444.93 334.775C445.152 334.775 445.32 334.838 445.434 334.963C445.551 335.088 445.609 335.244 445.609 335.432C445.609 335.611 445.551 335.762 445.434 335.883C445.32 336.004 445.152 336.064 444.93 336.064C444.707 336.064 444.539 336.004 444.426 335.883C444.316 335.762 444.262 335.611 444.262 335.432ZM444.268 330.258C444.268 330.07 444.322 329.914 444.432 329.789C444.545 329.664 444.713 329.602 444.936 329.602C445.158 329.602 445.326 329.664 445.439 329.789C445.557 329.914 445.615 330.07 445.615 330.258C445.615 330.438 445.557 330.588 445.439 330.709C445.326 330.83 445.158 330.891 444.936 330.891C444.713 330.891 444.545 330.83 444.432 330.709C444.322 330.588 444.268 330.438 444.268 330.258ZM447.59 331.723L448.023 327.469H452.395V328.471H448.943L448.686 330.797C449.104 330.551 449.578 330.428 450.109 330.428C450.887 330.428 451.504 330.686 451.961 331.201C452.418 331.713 452.646 332.406 452.646 333.281C452.646 334.16 452.408 334.854 451.932 335.361C451.459 335.865 450.797 336.117 449.945 336.117C449.191 336.117 448.576 335.908 448.1 335.49C447.623 335.072 447.352 334.494 447.285 333.756H448.311C448.377 334.244 448.551 334.613 448.832 334.863C449.113 335.109 449.484 335.232 449.945 335.232C450.449 335.232 450.844 335.061 451.129 334.717C451.418 334.373 451.562 333.898 451.562 333.293C451.562 332.723 451.406 332.266 451.094 331.922C450.785 331.574 450.373 331.4 449.857 331.4C449.385 331.4 449.014 331.504 448.744 331.711L448.457 331.945L447.59 331.723ZM459.18 332.361C459.18 333.631 458.963 334.574 458.529 335.191C458.096 335.809 457.418 336.117 456.496 336.117C455.586 336.117 454.912 335.816 454.475 335.215C454.037 334.609 453.811 333.707 453.795 332.508V331.061C453.795 329.807 454.012 328.875 454.445 328.266C454.879 327.656 455.559 327.352 456.484 327.352C457.402 327.352 458.078 327.646 458.512 328.236C458.945 328.822 459.168 329.729 459.18 330.955V332.361ZM458.096 330.879C458.096 329.961 457.967 329.293 457.709 328.875C457.451 328.453 457.043 328.242 456.484 328.242C455.93 328.242 455.525 328.451 455.271 328.869C455.018 329.287 454.887 329.93 454.879 330.797V332.531C454.879 333.453 455.012 334.135 455.277 334.576C455.547 335.014 455.953 335.232 456.496 335.232C457.031 335.232 457.428 335.025 457.686 334.611C457.947 334.197 458.084 333.545 458.096 332.654V330.879Z" fill="#CBD1E6"/>
<path d="M484.271 336H483.182V328.775L480.996 329.578V328.594L484.102 327.428H484.271V336ZM492.797 332.361C492.797 333.631 492.58 334.574 492.146 335.191C491.713 335.809 491.035 336.117 490.113 336.117C489.203 336.117 488.529 335.816 488.092 335.215C487.654 334.609 487.428 333.707 487.412 332.508V331.061C487.412 329.807 487.629 328.875 488.062 328.266C488.496 327.656 489.176 327.352 490.102 327.352C491.02 327.352 491.695 327.646 492.129 328.236C492.562 328.822 492.785 329.729 492.797 330.955V332.361ZM491.713 330.879C491.713 329.961 491.584 329.293 491.326 328.875C491.068 328.453 490.66 328.242 490.102 328.242C489.547 328.242 489.143 328.451 488.889 328.869C488.635 329.287 488.504 329.93 488.496 330.797V332.531C488.496 333.453 488.629 334.135 488.895 334.576C489.164 335.014 489.57 335.232 490.113 335.232C490.648 335.232 491.045 335.025 491.303 334.611C491.564 334.197 491.701 333.545 491.713 332.654V330.879ZM494.262 335.432C494.262 335.244 494.316 335.088 494.426 334.963C494.539 334.838 494.707 334.775 494.93 334.775C495.152 334.775 495.32 334.838 495.434 334.963C495.551 335.088 495.609 335.244 495.609 335.432C495.609 335.611 495.551 335.762 495.434 335.883C495.32 336.004 495.152 336.064 494.93 336.064C494.707 336.064 494.539 336.004 494.426 335.883C494.316 335.762 494.262 335.611 494.262 335.432ZM494.268 330.258C494.268 330.07 494.322 329.914 494.432 329.789C494.545 329.664 494.713 329.602 494.936 329.602C495.158 329.602 495.326 329.664 495.439 329.789C495.557 329.914 495.615 330.07 495.615 330.258C495.615 330.438 495.557 330.588 495.439 330.709C495.326 330.83 495.158 330.891 494.936 330.891C494.713 330.891 494.545 330.83 494.432 330.709C494.322 330.588 494.268 330.438 494.268 330.258ZM497.59 331.723L498.023 327.469H502.395V328.471H498.943L498.686 330.797C499.104 330.551 499.578 330.428 500.109 330.428C500.887 330.428 501.504 330.686 501.961 331.201C502.418 331.713 502.646 332.406 502.646 333.281C502.646 334.16 502.408 334.854 501.932 335.361C501.459 335.865 500.797 336.117 499.945 336.117C499.191 336.117 498.576 335.908 498.1 335.49C497.623 335.072 497.352 334.494 497.285 333.756H498.311C498.377 334.244 498.551 334.613 498.832 334.863C499.113 335.109 499.484 335.232 499.945 335.232C500.449 335.232 500.844 335.061 501.129 334.717C501.418 334.373 501.562 333.898 501.562 333.293C501.562 332.723 501.406 332.266 501.094 331.922C500.785 331.574 500.373 331.4 499.857 331.4C499.385 331.4 499.014 331.504 498.744 331.711L498.457 331.945L497.59 331.723ZM504.328 331.723L504.762 327.469H509.133V328.471H505.682L505.424 330.797C505.842 330.551 506.316 330.428 506.848 330.428C507.625 330.428 508.242 330.686 508.699 331.201C509.156 331.713 509.385 332.406 509.385 333.281C509.385 334.16 509.146 334.854 508.67 335.361C508.197 335.865 507.535 336.117 506.684 336.117C505.93 336.117 505.314 335.908 504.838 335.49C504.361 335.072 504.09 334.494 504.023 333.756H505.049C505.115 334.244 505.289 334.613 505.57 334.863C505.852 335.109 506.223 335.232 506.684 335.232C507.188 335.232 507.582 335.061 507.867 334.717C508.156 334.373 508.301 333.898 508.301 333.293C508.301 332.723 508.145 332.266 507.832 331.922C507.523 331.574 507.111 331.4 506.596 331.4C506.123 331.4 505.752 331.504 505.482 331.711L505.195 331.945L504.328 331.723Z" fill="#CBD1E6"/>
<path d="M534.271 336H533.182V328.775L530.996 329.578V328.594L534.102 327.428H534.271V336ZM541.01 336H539.92V328.775L537.734 329.578V328.594L540.84 327.428H541.01V336ZM544.262 335.432C544.262 335.244 544.316 335.088 544.426 334.963C544.539 334.838 544.707 334.775 544.93 334.775C545.152 334.775 545.32 334.838 545.434 334.963C545.551 335.088 545.609 335.244 545.609 335.432C545.609 335.611 545.551 335.762 545.434 335.883C545.32 336.004 545.152 336.064 544.93 336.064C544.707 336.064 544.539 336.004 544.426 335.883C544.316 335.762 544.262 335.611 544.262 335.432ZM544.268 330.258C544.268 330.07 544.322 329.914 544.432 329.789C544.545 329.664 544.713 329.602 544.936 329.602C545.158 329.602 545.326 329.664 545.439 329.789C545.557 329.914 545.615 330.07 545.615 330.258C545.615 330.438 545.557 330.588 545.439 330.709C545.326 330.83 545.158 330.891 544.936 330.891C544.713 330.891 544.545 330.83 544.432 330.709C544.322 330.588 544.268 330.438 544.268 330.258ZM552.441 332.361C552.441 333.631 552.225 334.574 551.791 335.191C551.357 335.809 550.68 336.117 549.758 336.117C548.848 336.117 548.174 335.816 547.736 335.215C547.299 334.609 547.072 333.707 547.057 332.508V331.061C547.057 329.807 547.273 328.875 547.707 328.266C548.141 327.656 548.82 327.352 549.746 327.352C550.664 327.352 551.34 327.646 551.773 328.236C552.207 328.822 552.43 329.729 552.441 330.955V332.361ZM551.357 330.879C551.357 329.961 551.229 329.293 550.971 328.875C550.713 328.453 550.305 328.242 549.746 328.242C549.191 328.242 548.787 328.451 548.533 328.869C548.279 329.287 548.148 329.93 548.141 330.797V332.531C548.141 333.453 548.273 334.135 548.539 334.576C548.809 335.014 549.215 335.232 549.758 335.232C550.293 335.232 550.689 335.025 550.947 334.611C551.209 334.197 551.346 333.545 551.357 332.654V330.879ZM559.18 332.361C559.18 333.631 558.963 334.574 558.529 335.191C558.096 335.809 557.418 336.117 556.496 336.117C555.586 336.117 554.912 335.816 554.475 335.215C554.037 334.609 553.811 333.707 553.795 332.508V331.061C553.795 329.807 554.012 328.875 554.445 328.266C554.879 327.656 555.559 327.352 556.484 327.352C557.402 327.352 558.078 327.646 558.512 328.236C558.945 328.822 559.168 329.729 559.18 330.955V332.361ZM558.096 330.879C558.096 329.961 557.967 329.293 557.709 328.875C557.451 328.453 557.043 328.242 556.484 328.242C555.93 328.242 555.525 328.451 555.271 328.869C555.018 329.287 554.887 329.93 554.879 330.797V332.531C554.879 333.453 555.012 334.135 555.277 334.576C555.547 335.014 555.953 335.232 556.496 335.232C557.031 335.232 557.428 335.025 557.686 334.611C557.947 334.197 558.084 333.545 558.096 332.654V330.879Z" fill="#CBD1E6"/>
<path d="M584.271 336H583.182V328.775L580.996 329.578V328.594L584.102 327.428H584.271V336ZM591.01 336H589.92V328.775L587.734 329.578V328.594L590.84 327.428H591.01V336ZM594.262 335.432C594.262 335.244 594.316 335.088 594.426 334.963C594.539 334.838 594.707 334.775 594.93 334.775C595.152 334.775 595.32 334.838 595.434 334.963C595.551 335.088 595.609 335.244 595.609 335.432C595.609 335.611 595.551 335.762 595.434 335.883C595.32 336.004 595.152 336.064 594.93 336.064C594.707 336.064 594.539 336.004 594.426 335.883C594.316 335.762 594.262 335.611 594.262 335.432ZM594.268 330.258C594.268 330.07 594.322 329.914 594.432 329.789C594.545 329.664 594.713 329.602 594.936 329.602C595.158 329.602 595.326 329.664 595.439 329.789C595.557 329.914 595.615 330.07 595.615 330.258C595.615 330.438 595.557 330.588 595.439 330.709C595.326 330.83 595.158 330.891 594.936 330.891C594.713 330.891 594.545 330.83 594.432 330.709C594.322 330.588 594.268 330.438 594.268 330.258ZM602.441 332.361C602.441 333.631 602.225 334.574 601.791 335.191C601.357 335.809 600.68 336.117 599.758 336.117C598.848 336.117 598.174 335.816 597.736 335.215C597.299 334.609 597.072 333.707 597.057 332.508V331.061C597.057 329.807 597.273 328.875 597.707 328.266C598.141 327.656 598.82 327.352 599.746 327.352C600.664 327.352 601.34 327.646 601.773 328.236C602.207 328.822 602.43 329.729 602.441 330.955V332.361ZM601.357 330.879C601.357 329.961 601.229 329.293 600.971 328.875C600.713 328.453 600.305 328.242 599.746 328.242C599.191 328.242 598.787 328.451 598.533 328.869C598.279 329.287 598.148 329.93 598.141 330.797V332.531C598.141 333.453 598.273 334.135 598.539 334.576C598.809 335.014 599.215 335.232 599.758 335.232C600.293 335.232 600.689 335.025 600.947 334.611C601.209 334.197 601.346 333.545 601.357 332.654V330.879ZM604.328 331.723L604.762 327.469H609.133V328.471H605.682L605.424 330.797C605.842 330.551 606.316 330.428 606.848 330.428C607.625 330.428 608.242 330.686 608.699 331.201C609.156 331.713 609.385 332.406 609.385 333.281C609.385 334.16 609.146 334.854 608.67 335.361C608.197 335.865 607.535 336.117 606.684 336.117C605.93 336.117 605.314 335.908 604.838 335.49C604.361 335.072 604.09 334.494 604.023 333.756H605.049C605.115 334.244 605.289 334.613 605.57 334.863C605.852 335.109 606.223 335.232 606.684 335.232C607.188 335.232 607.582 335.061 607.867 334.717C608.156 334.373 608.301 333.898 608.301 333.293C608.301 332.723 608.145 332.266 607.832 331.922C607.523 331.574 607.111 331.4 606.596 331.4C606.123 331.4 605.752 331.504 605.482 331.711L605.195 331.945L604.328 331.723Z" fill="#CBD1E6"/>
<path d="M634.271 336H633.182V328.775L630.996 329.578V328.594L634.102 327.428H634.271V336ZM641.01 336H639.92V328.775L637.734 329.578V328.594L640.84 327.428H641.01V336ZM644.262 335.432C644.262 335.244 644.316 335.088 644.426 334.963C644.539 334.838 644.707 334.775 644.93 334.775C645.152 334.775 645.32 334.838 645.434 334.963C645.551 335.088 645.609 335.244 645.609 335.432C645.609 335.611 645.551 335.762 645.434 335.883C645.32 336.004 645.152 336.064 644.93 336.064C644.707 336.064 644.539 336.004 644.426 335.883C644.316 335.762 644.262 335.611 644.262 335.432ZM644.268 330.258C644.268 330.07 644.322 329.914 644.432 329.789C644.545 329.664 644.713 329.602 644.936 329.602C645.158 329.602 645.326 329.664 645.439 329.789C645.557 329.914 645.615 330.07 645.615 330.258C645.615 330.438 645.557 330.588 645.439 330.709C645.326 330.83 645.158 330.891 644.936 330.891C644.713 330.891 644.545 330.83 644.432 330.709C644.322 330.588 644.268 330.438 644.268 330.258ZM650.654 336H649.564V328.775L647.379 329.578V328.594L650.484 327.428H650.654V336ZM659.18 332.361C659.18 333.631 658.963 334.574 658.529 335.191C658.096 335.809 657.418 336.117 656.496 336.117C655.586 336.117 654.912 335.816 654.475 335.215C654.037 334.609 653.811 333.707 653.795 332.508V331.061C653.795 329.807 654.012 328.875 654.445 328.266C654.879 327.656 655.559 327.352 656.484 327.352C657.402 327.352 658.078 327.646 658.512 328.236C658.945 328.822 659.168 329.729 659.18 330.955V332.361ZM658.096 330.879C658.096 329.961 657.967 329.293 657.709 328.875C657.451 328.453 657.043 328.242 656.484 328.242C655.93 328.242 655.525 328.451 655.271 328.869C655.018 329.287 654.887 329.93 654.879 330.797V332.531C654.879 333.453 655.012 334.135 655.277 334.576C655.547 335.014 655.953 335.232 656.496 335.232C657.031 335.232 657.428 335.025 657.686 334.611C657.947 334.197 658.084 333.545 658.096 332.654V330.879Z" fill="#CBD1E6"/>
<path d="M684.271 336H683.182V328.775L680.996 329.578V328.594L684.102 327.428H684.271V336ZM691.01 336H689.92V328.775L687.734 329.578V328.594L690.84 327.428H691.01V336ZM694.262 335.432C694.262 335.244 694.316 335.088 694.426 334.963C694.539 334.838 694.707 334.775 694.93 334.775C695.152 334.775 695.32 334.838 695.434 334.963C695.551 335.088 695.609 335.244 695.609 335.432C695.609 335.611 695.551 335.762 695.434 335.883C695.32 336.004 695.152 336.064 694.93 336.064C694.707 336.064 694.539 336.004 694.426 335.883C694.316 335.762 694.262 335.611 694.262 335.432ZM694.268 330.258C694.268 330.07 694.322 329.914 694.432 329.789C694.545 329.664 694.713 329.602 694.936 329.602C695.158 329.602 695.326 329.664 695.439 329.789C695.557 329.914 695.615 330.07 695.615 330.258C695.615 330.438 695.557 330.588 695.439 330.709C695.326 330.83 695.158 330.891 694.936 330.891C694.713 330.891 694.545 330.83 694.432 330.709C694.322 330.588 694.268 330.438 694.268 330.258ZM700.654 336H699.564V328.775L697.379 329.578V328.594L700.484 327.428H700.654V336ZM704.328 331.723L704.762 327.469H709.133V328.471H705.682L705.424 330.797C705.842 330.551 706.316 330.428 706.848 330.428C707.625 330.428 708.242 330.686 708.699 331.201C709.156 331.713 709.385 332.406 709.385 333.281C709.385 334.16 709.146 334.854 708.67 335.361C708.197 335.865 707.535 336.117 706.684 336.117C705.93 336.117 705.314 335.908 704.838 335.49C704.361 335.072 704.09 334.494 704.023 333.756H705.049C705.115 334.244 705.289 334.613 705.57 334.863C705.852 335.109 706.223 335.232 706.684 335.232C707.188 335.232 707.582 335.061 707.867 334.717C708.156 334.373 708.301 333.898 708.301 333.293C708.301 332.723 708.145 332.266 707.832 331.922C707.523 331.574 707.111 331.4 706.596 331.4C706.123 331.4 705.752 331.504 705.482 331.711L705.195 331.945L704.328 331.723Z" fill="#CBD1E6"/>
<path d="M734.271 336H733.182V328.775L730.996 329.578V328.594L734.102 327.428H734.271V336ZM741.01 336H739.92V328.775L737.734 329.578V328.594L740.84 327.428H741.01V336ZM744.262 335.432C744.262 335.244 744.316 335.088 744.426 334.963C744.539 334.838 744.707 334.775 744.93 334.775C745.152 334.775 745.32 334.838 745.434 334.963C745.551 335.088 745.609 335.244 745.609 335.432C745.609 335.611 745.551 335.762 745.434 335.883C745.32 336.004 745.152 336.064 744.93 336.064C744.707 336.064 744.539 336.004 744.426 335.883C744.316 335.762 744.262 335.611 744.262 335.432ZM744.268 330.258C744.268 330.07 744.322 329.914 744.432 329.789C744.545 329.664 744.713 329.602 744.936 329.602C745.158 329.602 745.326 329.664 745.439 329.789C745.557 329.914 745.615 330.07 745.615 330.258C745.615 330.438 745.557 330.588 745.439 330.709C745.326 330.83 745.158 330.891 744.936 330.891C744.713 330.891 744.545 330.83 744.432 330.709C744.322 330.588 744.268 330.438 744.268 330.258ZM752.682 336H747.092V335.221L750.045 331.939C750.482 331.443 750.783 331.041 750.947 330.732C751.115 330.42 751.199 330.098 751.199 329.766C751.199 329.32 751.064 328.955 750.795 328.67C750.525 328.385 750.166 328.242 749.717 328.242C749.178 328.242 748.758 328.396 748.457 328.705C748.16 329.01 748.012 329.436 748.012 329.982H746.928C746.928 329.197 747.18 328.562 747.684 328.078C748.191 327.594 748.869 327.352 749.717 327.352C750.51 327.352 751.137 327.561 751.598 327.979C752.059 328.393 752.289 328.945 752.289 329.637C752.289 330.477 751.754 331.477 750.684 332.637L748.398 335.115H752.682V336ZM759.18 332.361C759.18 333.631 758.963 334.574 758.529 335.191C758.096 335.809 757.418 336.117 756.496 336.117C755.586 336.117 754.912 335.816 754.475 335.215C754.037 334.609 753.811 333.707 753.795 332.508V331.061C753.795 329.807 754.012 328.875 754.445 328.266C754.879 327.656 755.559 327.352 756.484 327.352C757.402 327.352 758.078 327.646 758.512 328.236C758.945 328.822 759.168 329.729 759.18 330.955V332.361ZM758.096 330.879C758.096 329.961 757.967 329.293 757.709 328.875C757.451 328.453 757.043 328.242 756.484 328.242C755.93 328.242 755.525 328.451 755.271 328.869C755.018 329.287 754.887 329.93 754.879 330.797V332.531C754.879 333.453 755.012 334.135 755.277 334.576C755.547 335.014 755.953 335.232 756.496 335.232C757.031 335.232 757.428 335.025 757.686 334.611C757.947 334.197 758.084 333.545 758.096 332.654V330.879Z" fill="#CBD1E6"/>
<path d="M31.3828 47V35.625H35.2812C36.5677 35.625 37.5469 35.8828 38.2188 36.3984C38.8906 36.9141 39.2266 37.6823 39.2266 38.7031C39.2266 39.224 39.0859 39.6927 38.8047 40.1094C38.5234 40.526 38.112 40.849 37.5703 41.0781C38.1849 41.2448 38.6589 41.5599 38.9922 42.0234C39.3307 42.4818 39.5 43.0339 39.5 43.6797C39.5 44.7474 39.1562 45.5677 38.4688 46.1406C37.7865 46.7135 36.8073 47 35.5312 47H31.3828ZM33.3594 41.8672V45.4219H35.5547C36.1745 45.4219 36.6589 45.2682 37.0078 44.9609C37.3568 44.6536 37.5312 44.2266 37.5312 43.6797C37.5312 42.4974 36.9271 41.8932 35.7188 41.8672H33.3594ZM33.3594 40.4141H35.2969C35.9115 40.4141 36.3906 40.276 36.7344 40C37.0833 39.7188 37.2578 39.3229 37.2578 38.8125C37.2578 38.25 37.0964 37.8438 36.7734 37.5938C36.4557 37.3438 35.9583 37.2188 35.2812 37.2188H33.3594V40.4141ZM43.3125 47H41.4141V38.5469H43.3125V47ZM41.2969 36.3516C41.2969 36.0599 41.388 35.8177 41.5703 35.625C41.7578 35.4323 42.0234 35.3359 42.3672 35.3359C42.7109 35.3359 42.9766 35.4323 43.1641 35.625C43.3516 35.8177 43.4453 36.0599 43.4453 36.3516C43.4453 36.638 43.3516 36.8776 43.1641 37.0703C42.9766 37.2578 42.7109 37.3516 42.3672 37.3516C42.0234 37.3516 41.7578 37.2578 41.5703 37.0703C41.388 36.8776 41.2969 36.638 41.2969 36.3516ZM47.7656 36.4922V38.5469H49.2578V39.9531H47.7656V44.6719C47.7656 44.9948 47.8281 45.2292 47.9531 45.375C48.0833 45.5156 48.3125 45.5859 48.6406 45.5859C48.8594 45.5859 49.0807 45.5599 49.3047 45.5078V46.9766C48.8724 47.0964 48.4557 47.1562 48.0547 47.1562C46.5964 47.1562 45.8672 46.3516 45.8672 44.7422V39.9531H44.4766V38.5469H45.8672V36.4922H47.7656ZM54.1875 45.6406C54.6615 45.6406 55.0547 45.5026 55.3672 45.2266C55.6797 44.9505 55.8464 44.6094 55.8672 44.2031H57.6562C57.6354 44.7292 57.4714 45.2214 57.1641 45.6797C56.8568 46.1328 56.4401 46.4922 55.9141 46.7578C55.388 47.0234 54.8203 47.1562 54.2109 47.1562C53.0286 47.1562 52.0911 46.7734 51.3984 46.0078C50.7057 45.2422 50.3594 44.1849 50.3594 42.8359V42.6406C50.3594 41.3542 50.7031 40.3255 51.3906 39.5547C52.0781 38.7786 53.0156 38.3906 54.2031 38.3906C55.2083 38.3906 56.026 38.6849 56.6562 39.2734C57.2917 39.8568 57.625 40.625 57.6562 41.5781H55.8672C55.8464 41.0938 55.6797 40.6953 55.3672 40.3828C55.0599 40.0703 54.6667 39.9141 54.1875 39.9141C53.5729 39.9141 53.099 40.138 52.7656 40.5859C52.4323 41.0286 52.263 41.7031 52.2578 42.6094V42.9141C52.2578 43.8307 52.4219 44.5156 52.75 44.9688C53.0833 45.4167 53.5625 45.6406 54.1875 45.6406ZM58.7344 42.6953C58.7344 41.8672 58.8984 41.1224 59.2266 40.4609C59.5547 39.7943 60.0156 39.2839 60.6094 38.9297C61.2031 38.5703 61.8854 38.3906 62.6562 38.3906C63.7969 38.3906 64.7214 38.7578 65.4297 39.4922C66.1432 40.2266 66.5286 41.2005 66.5859 42.4141L66.5938 42.8594C66.5938 43.6927 66.4323 44.4375 66.1094 45.0938C65.7917 45.75 65.3333 46.2578 64.7344 46.6172C64.1406 46.9766 63.4531 47.1562 62.6719 47.1562C61.4792 47.1562 60.5234 46.7604 59.8047 45.9688C59.0911 45.1719 58.7344 44.112 58.7344 42.7891V42.6953ZM60.6328 42.8594C60.6328 43.7292 60.8125 44.4115 61.1719 44.9062C61.5312 45.3958 62.0312 45.6406 62.6719 45.6406C63.3125 45.6406 63.8099 45.3906 64.1641 44.8906C64.5234 44.3906 64.7031 43.6589 64.7031 42.6953C64.7031 41.8411 64.5182 41.1641 64.1484 40.6641C63.7839 40.1641 63.2865 39.9141 62.6562 39.9141C62.0365 39.9141 61.5443 40.1615 61.1797 40.6562C60.8151 41.1458 60.6328 41.8802 60.6328 42.8594ZM70.2188 47H68.3203V38.5469H70.2188V47ZM68.2031 36.3516C68.2031 36.0599 68.2943 35.8177 68.4766 35.625C68.6641 35.4323 68.9297 35.3359 69.2734 35.3359C69.6172 35.3359 69.8828 35.4323 70.0703 35.625C70.2578 35.8177 70.3516 36.0599 70.3516 36.3516C70.3516 36.638 70.2578 36.8776 70.0703 37.0703C69.8828 37.2578 69.6172 37.3516 69.2734 37.3516C68.9297 37.3516 68.6641 37.2578 68.4766 37.0703C68.2943 36.8776 68.2031 36.638 68.2031 36.3516ZM74.0547 38.5469L74.1094 39.5234C74.7344 38.7682 75.5547 38.3906 76.5703 38.3906C78.3307 38.3906 79.2266 39.3984 79.2578 41.4141V47H77.3594V41.5234C77.3594 40.987 77.2422 40.5911 77.0078 40.3359C76.7786 40.0755 76.401 39.9453 75.875 39.9453C75.1094 39.9453 74.5391 40.2917 74.1641 40.9844V47H72.2656V38.5469H74.0547ZM89.5469 42.6172H87.3438V47H85.3672V35.625H89.3672C90.6797 35.625 91.6927 35.9193 92.4062 36.5078C93.1198 37.0964 93.4766 37.9479 93.4766 39.0625C93.4766 39.8229 93.2917 40.4609 92.9219 40.9766C92.5573 41.487 92.0469 41.8802 91.3906 42.1562L93.9453 46.8984V47H91.8281L89.5469 42.6172ZM87.3438 41.0312H89.375C90.0417 41.0312 90.5625 40.8646 90.9375 40.5312C91.3125 40.1927 91.5 39.7318 91.5 39.1484C91.5 38.5391 91.3255 38.0677 90.9766 37.7344C90.6328 37.401 90.1172 37.2292 89.4297 37.2188H87.3438V41.0312ZM100.219 47C100.135 46.8385 100.062 46.5755 100 46.2109C99.3958 46.8411 98.6562 47.1562 97.7812 47.1562C96.9323 47.1562 96.2396 46.9141 95.7031 46.4297C95.1667 45.9453 94.8984 45.3464 94.8984 44.6328C94.8984 43.7318 95.2318 43.0417 95.8984 42.5625C96.5703 42.0781 97.5286 41.8359 98.7734 41.8359H99.9375V41.2812C99.9375 40.8438 99.8151 40.4948 99.5703 40.2344C99.3255 39.9688 98.9531 39.8359 98.4531 39.8359C98.0208 39.8359 97.6667 39.9453 97.3906 40.1641C97.1146 40.3776 96.9766 40.651 96.9766 40.9844H95.0781C95.0781 40.5208 95.2318 40.0885 95.5391 39.6875C95.8464 39.2812 96.263 38.9635 96.7891 38.7344C97.3203 38.5052 97.9115 38.3906 98.5625 38.3906C99.5521 38.3906 100.341 38.6406 100.93 39.1406C101.518 39.6354 101.82 40.3333 101.836 41.2344V45.0469C101.836 45.8073 101.943 46.4141 102.156 46.8672V47H100.219ZM98.1328 45.6328C98.5078 45.6328 98.8594 45.5417 99.1875 45.3594C99.5208 45.1771 99.7708 44.9323 99.9375 44.625V43.0312H98.9141C98.2109 43.0312 97.6823 43.1536 97.3281 43.3984C96.974 43.6432 96.7969 43.9896 96.7969 44.4375C96.7969 44.8021 96.9167 45.0938 97.1562 45.3125C97.401 45.526 97.7266 45.6328 98.1328 45.6328ZM106.203 36.4922V38.5469H107.695V39.9531H106.203V44.6719C106.203 44.9948 106.266 45.2292 106.391 45.375C106.521 45.5156 106.75 45.5859 107.078 45.5859C107.297 45.5859 107.518 45.5599 107.742 45.5078V46.9766C107.31 47.0964 106.893 47.1562 106.492 47.1562C105.034 47.1562 104.305 46.3516 104.305 44.7422V39.9531H102.914V38.5469H104.305V36.4922H106.203ZM112.875 47.1562C111.672 47.1562 110.695 46.7786 109.945 46.0234C109.201 45.263 108.828 44.2526 108.828 42.9922V42.7578C108.828 41.9141 108.99 41.1615 109.312 40.5C109.641 39.8333 110.099 39.3151 110.688 38.9453C111.276 38.5755 111.932 38.3906 112.656 38.3906C113.807 38.3906 114.695 38.7578 115.32 39.4922C115.951 40.2266 116.266 41.2656 116.266 42.6094V43.375H110.742C110.799 44.0729 111.031 44.625 111.438 45.0312C111.849 45.4375 112.365 45.6406 112.984 45.6406C113.854 45.6406 114.562 45.2891 115.109 44.5859L116.133 45.5625C115.794 46.0677 115.341 46.4609 114.773 46.7422C114.211 47.0182 113.578 47.1562 112.875 47.1562ZM112.648 39.9141C112.128 39.9141 111.706 40.0964 111.383 40.4609C111.065 40.8255 110.862 41.3333 110.773 41.9844H114.391V41.8438C114.349 41.2083 114.18 40.7292 113.883 40.4062C113.586 40.0781 113.174 39.9141 112.648 39.9141Z" fill="white"/>
<path d="M125.291 39.125V40.6602H126.475V41.498H125.291V45.4297C125.291 45.6836 125.344 45.875 125.449 46.0039C125.555 46.1289 125.734 46.1914 125.988 46.1914C126.113 46.1914 126.285 46.168 126.504 46.1211V47C126.219 47.0781 125.941 47.1172 125.672 47.1172C125.188 47.1172 124.822 46.9707 124.576 46.6777C124.33 46.3848 124.207 45.9688 124.207 45.4297V41.498H123.053V40.6602H124.207V39.125H125.291ZM127.342 43.7715C127.342 43.1504 127.463 42.5918 127.705 42.0957C127.951 41.5996 128.291 41.2168 128.725 40.9473C129.162 40.6777 129.66 40.543 130.219 40.543C131.082 40.543 131.779 40.8418 132.311 41.4395C132.846 42.0371 133.113 42.832 133.113 43.8242V43.9004C133.113 44.5176 132.994 45.0723 132.756 45.5645C132.521 46.0527 132.184 46.4336 131.742 46.707C131.305 46.9805 130.801 47.1172 130.23 47.1172C129.371 47.1172 128.674 46.8184 128.139 46.2207C127.607 45.623 127.342 44.832 127.342 43.8477V43.7715ZM128.432 43.9004C128.432 44.6035 128.594 45.168 128.918 45.5938C129.246 46.0195 129.684 46.2324 130.23 46.2324C130.781 46.2324 131.219 46.0176 131.543 45.5879C131.867 45.1543 132.029 44.5488 132.029 43.7715C132.029 43.0762 131.863 42.5137 131.531 42.084C131.203 41.6504 130.766 41.4336 130.219 41.4336C129.684 41.4336 129.252 41.6465 128.924 42.0723C128.596 42.498 128.432 43.1074 128.432 43.9004ZM143.625 38.4688V44.2695C143.621 45.0742 143.367 45.7324 142.863 46.2441C142.363 46.7559 141.684 47.043 140.824 47.1055L140.525 47.1172C139.592 47.1172 138.848 46.8652 138.293 46.3613C137.738 45.8574 137.457 45.1641 137.449 44.2812V38.4688H138.562V44.2461C138.562 44.8633 138.732 45.3438 139.072 45.6875C139.412 46.0273 139.896 46.1973 140.525 46.1973C141.162 46.1973 141.648 46.0273 141.984 45.6875C142.324 45.3477 142.494 44.8691 142.494 44.252V38.4688H143.625ZM147.914 43.1973C146.949 42.9199 146.246 42.5801 145.805 42.1777C145.367 41.7715 145.148 41.2715 145.148 40.6777C145.148 40.0059 145.416 39.4512 145.951 39.0137C146.49 38.5723 147.189 38.3516 148.049 38.3516C148.635 38.3516 149.156 38.4648 149.613 38.6914C150.074 38.918 150.43 39.2305 150.68 39.6289C150.934 40.0273 151.061 40.4629 151.061 40.9355H149.93C149.93 40.4199 149.766 40.0156 149.438 39.7227C149.109 39.4258 148.646 39.2773 148.049 39.2773C147.494 39.2773 147.061 39.4004 146.748 39.6465C146.439 39.8887 146.285 40.2266 146.285 40.6602C146.285 41.0078 146.432 41.3027 146.725 41.5449C147.021 41.7832 147.523 42.002 148.23 42.2012C148.941 42.4004 149.496 42.6211 149.895 42.8633C150.297 43.1016 150.594 43.3809 150.785 43.7012C150.98 44.0215 151.078 44.3984 151.078 44.832C151.078 45.5234 150.809 46.0781 150.27 46.4961C149.73 46.9102 149.01 47.1172 148.107 47.1172C147.521 47.1172 146.975 47.0059 146.467 46.7832C145.959 46.5566 145.566 46.248 145.289 45.8574C145.016 45.4668 144.879 45.0234 144.879 44.5273H146.01C146.01 45.043 146.199 45.4512 146.578 45.752C146.961 46.0488 147.471 46.1973 148.107 46.1973C148.701 46.1973 149.156 46.0762 149.473 45.834C149.789 45.5918 149.947 45.2617 149.947 44.8438C149.947 44.4258 149.801 44.1035 149.508 43.877C149.215 43.6465 148.684 43.4199 147.914 43.1973ZM152.525 47V38.4688H154.934C155.676 38.4688 156.332 38.6328 156.902 38.9609C157.473 39.2891 157.912 39.7559 158.221 40.3613C158.533 40.9668 158.691 41.6621 158.695 42.4473V42.9922C158.695 43.7969 158.539 44.502 158.227 45.1074C157.918 45.7129 157.475 46.1777 156.896 46.502C156.322 46.8262 155.652 46.9922 154.887 47H152.525ZM153.65 39.3945V46.0801H154.834C155.701 46.0801 156.375 45.8105 156.855 45.2715C157.34 44.7324 157.582 43.9648 157.582 42.9688V42.4707C157.582 41.502 157.354 40.75 156.896 40.2148C156.443 39.6758 155.799 39.4023 154.963 39.3945H153.65Z" fill="#CBD1E6"/>
<defs>
<filter id="filter0_d" x="238" y="74" width="119" height="74.4992" filterUnits="userSpaceOnUse" color-interpolation-filters="sRGB">
<feFlood flood-opacity="0" result="BackgroundImageFix"/>
<feColorMatrix in="SourceAlpha" type="matrix" values="0 0 0 0 0 0 0 0 0 0 0 0 0 0 0 0 0 0 127 0"/>
<feOffset/>
<feGaussianBlur stdDeviation="10"/>
<feColorMatrix type="matrix" values="0 0 0 0 0 0 0 0 0 0 0 0 0 0 0 0 0 0 0.15 0"/>
<feBlend mode="normal" in2="BackgroundImageFix" result="effect1_dropShadow"/>
<feBlend mode="normal" in="SourceGraphic" in2="effect1_dropShadow" result="shape"/>
</filter>
</defs>
</svg>
