<svg width="18" height="18" viewBox="0 0 18 18" fill="none" xmlns="http://www.w3.org/2000/svg">
<mask id="mask0" mask-type="alpha" maskUnits="userSpaceOnUse" x="0" y="1" width="18" height="16">
<path d="M17.145 9.98895C17.2125 9.81645 17.25 9.63645 17.25 9.44145V7.94145C17.25 7.11645 16.575 6.44145 15.75 6.44145H11.0175L11.73 3.01395L11.7525 2.77395C11.7525 2.46645 11.625 2.18145 11.4225 1.97895L11.1582 1.71716C10.8648 1.42648 10.3915 1.42778 10.0997 1.72007L5.6925 6.13395C5.415 6.40395 5.25 6.77895 5.25 7.19145V14.6914C5.25 15.5164 5.925 16.1914 6.75 16.1914H13.5C14.1225 16.1914 14.655 15.8164 14.88 15.2764L17.145 9.98895Z" fill="#53576C"/>
<path d="M0.75 7.19145H3.75V16.1914H0.75V7.19145Z" fill="#53576C"/>
</mask>
<g mask="url(#mask0)">
<path fill-rule="evenodd" clip-rule="evenodd" d="M0 0H18V18H0V0Z" fill="#53576C"/>
</g>
</svg>
