<svg width="107" height="40" viewBox="0 0 107 40" fill="none" xmlns="http://www.w3.org/2000/svg">
<path d="M29.6816 12.2711L32.1599 12.2586L32.2232 25.085C32.2305 26.5535 32.6033 27.6948 33.3416 28.509C34.0982 29.3046 35.1282 29.699 36.4316 29.6924C37.7901 29.6855 38.8529 29.2898 39.6201 28.5051C40.3871 27.7019 40.767 26.5474 40.7595 25.0417C40.7525 23.6104 40.3247 22.4879 39.4762 21.6743C38.646 20.8419 37.5516 20.4292 36.1932 20.4361C35.0366 20.4419 34.0378 20.7816 33.1967 21.4551L33.1843 18.9456C34.1912 18.3828 35.2821 18.0984 36.457 18.0925C38.4029 18.0826 40.0123 18.7158 41.2853 19.992C42.5766 21.2496 43.2274 22.9286 43.2378 25.0292C43.2487 27.2413 42.5872 28.9642 41.2531 30.1978C39.9373 31.4128 38.2698 32.0254 36.2504 32.0356C34.3229 32.0454 32.7594 31.4212 31.5599 30.1632C30.3604 28.9052 29.7554 27.2166 29.745 25.0975L29.6816 12.2711Z" fill="#00C58C"/>
<path d="M52.5582 18.011C55.6796 18.1253 57.2465 19.4279 57.2588 21.9188C57.2741 25.0232 55.2716 26.5855 51.2513 26.6059L50.1223 26.6116L50.1117 24.4646L51.4335 24.4579C52.6634 24.4517 53.5162 24.2615 53.9916 23.8873C54.467 23.4945 54.7025 22.852 54.6981 21.9597C54.6952 21.3834 54.482 20.9569 54.0584 20.6802C53.6347 20.385 53.0924 20.239 52.4315 20.2423C51.1282 20.2489 50.1024 20.7189 49.3544 21.6521C48.6246 22.5853 48.263 23.7025 48.2694 25.0037C48.2762 26.3793 48.6764 27.4926 49.47 28.3437C50.282 29.1947 51.3305 29.617 52.6155 29.6105C53.772 29.6046 54.716 29.3117 55.4475 28.7317L57.1078 30.3685C55.8462 31.4159 54.3527 31.944 52.6271 31.9527C50.5343 31.9633 48.8607 31.349 47.6062 30.1099C46.3517 28.8707 45.7196 27.2659 45.7099 25.2955C45.6991 23.102 46.3053 21.3237 47.5286 19.9604C48.7518 18.5972 50.4284 17.9474 52.5582 18.011Z" fill="#00C58C"/>
<path d="M58.6259 20.6014L63.5303 15.5853L63.5434 18.2342L67.2608 18.2154L67.2723 20.5576L63.5549 20.5764L63.5833 26.3204C63.5865 26.971 63.6901 27.5096 63.8942 27.9361C64.1166 28.3625 64.4302 28.6677 64.835 28.8515C65.2397 29.0168 65.6165 29.1264 65.9656 29.1804C66.333 29.2343 66.7829 29.2599 67.3153 29.2572L67.3269 31.5994C65.2157 31.6101 63.6533 31.2091 62.6396 30.3963C61.6259 29.5834 61.1144 28.229 61.105 26.3329L61.0767 20.5889L58.6259 20.6014Z" fill="#00C58C"/>
<path d="M69.927 26.2883L69.8568 12.0677L72.335 12.0552L72.4053 26.2757C72.4086 26.9449 72.4847 27.4929 72.6337 27.9197C72.8009 28.3279 73.0502 28.624 73.3816 28.8082C73.7128 28.9739 74.0346 29.0838 74.347 29.138C74.6593 29.1921 75.0725 29.2179 75.5865 29.2153L75.5981 31.5575C73.5421 31.568 72.0807 31.1757 71.2139 30.3807C70.3655 29.5857 69.9365 28.2215 69.927 26.2883Z" fill="#00C58C"/>
<path d="M77.3489 26.2507L77.2787 12.0301L79.757 12.0176L79.8272 26.2381C79.8305 26.9073 79.9066 27.4554 80.0556 27.8822C80.2228 28.2903 80.4721 28.5864 80.8035 28.7707C81.1347 28.9363 81.4566 29.0462 81.7689 29.1004C82.0813 29.1546 82.4944 29.1804 83.0085 29.1778L83.02 31.52C80.964 31.5304 79.5026 31.1381 78.6358 30.3431C77.7874 29.5481 77.3585 28.1839 77.3489 26.2507Z" fill="#00C58C"/>
<path d="M91.2006 17.8153C94.322 17.9296 95.8889 19.2323 95.9012 21.7232C95.9165 24.8275 93.914 26.3899 89.8937 26.4103L88.7647 26.416L88.7541 24.2689L90.0758 24.2623C91.3058 24.256 92.1585 24.0658 92.634 23.6916C93.1093 23.2988 93.3448 22.6563 93.3404 21.764C93.3376 21.1878 93.1243 20.7613 92.7007 20.4846C92.277 20.1893 91.7348 20.0433 91.0739 20.0467C89.7705 20.0533 88.7448 20.5232 87.9967 21.4565C87.267 22.3896 86.9053 23.5068 86.9118 24.8081C86.9186 26.1837 87.3188 27.297 88.1124 28.1481C88.9243 28.9991 89.9728 29.4213 91.2578 29.4148C92.4144 29.409 93.3584 29.1161 94.0898 28.5361L95.7501 30.1728C94.4886 31.2202 92.995 31.7483 91.2694 31.757C89.1766 31.7676 87.503 31.1534 86.2486 29.9142C84.9941 28.6751 84.362 27.0703 84.3523 25.0999C84.3414 22.9064 84.9476 21.128 86.1709 19.7648C87.3942 18.4016 89.0707 17.7517 91.2006 17.8153Z" fill="#00C58C"/>
<path d="M98.2866 31.4427L98.249 23.8305C98.2384 21.6928 98.6258 20.2129 99.4112 19.391C99.7946 18.9801 100.261 18.671 100.811 18.4638C101.361 18.2565 101.837 18.1333 102.241 18.094C102.663 18.0547 103.232 18.0332 103.948 18.0296L106.371 18.0174L106.383 20.3596L103.464 20.3743C103.097 20.3762 102.812 20.3869 102.61 20.4065C102.409 20.4262 102.17 20.4924 101.895 20.6054C101.621 20.7183 101.383 20.8961 101.182 21.1388C100.836 21.5867 100.666 22.4798 100.672 23.8182L100.71 31.4304L98.2866 31.4427Z" fill="#00C58C"/>
<path opacity="0.5" d="M18.895 27.0851L1.61328 34.2096L4.52911 38.1416L21.8108 31.0171L18.895 27.0851Z" fill="#00C58C"/>
<path opacity="0.75" d="M9.59322 12.0133L22.8666 24.2718L18.9413 26.9016L8.75098 17.4904L9.59322 12.0133Z" fill="#00C58C"/>
<path d="M5.81099 2.00242L10.5082 0L10.3533 1.01242L5.6676 2.93999L5.81099 2.00242Z" fill="#00C58C"/>
<path d="M0 40L4.68572 38.0724L9.54684 6.28598L4.86111 8.21355L0 40Z" fill="#00C58C"/>
<path d="M9.86584 4.20005L9.7182 5.16547L5.03247 7.09304L5.18012 6.12762L9.86584 4.20005Z" fill="#00C58C"/>
<path d="M5.35148 5.00711L10.0372 3.07954L10.182 2.13292L5.49624 4.06049L5.35148 5.00711Z" fill="#00C58C"/>
<path fill-rule="evenodd" clip-rule="evenodd" d="M13.9414 26.0516L22.8833 24.29L21.8517 31.0131L13.9414 26.0516Z" fill="#00C58C"/>
</svg>
